<?xml version="1.0" encoding="UTF-8" standalone="no"?>
<svg
   xmlns:dc="http://purl.org/dc/elements/1.1/"
   xmlns:cc="http://creativecommons.org/ns#"
   xmlns:rdf="http://www.w3.org/1999/02/22-rdf-syntax-ns#"
   xmlns:svg="http://www.w3.org/2000/svg"
   xmlns="http://www.w3.org/2000/svg"
   xmlns:sodipodi="http://sodipodi.sourceforge.net/DTD/sodipodi-0.dtd"
   xmlns:inkscape="http://www.inkscape.org/namespaces/inkscape"
   version="1.1"
   id="svg2"
   xml:space="preserve"
   width="1333.3333"
   height="1333.3333"
   viewBox="0 0 1333.3333 1333.3333"
   sodipodi:docname="Source File.ai"><metadata
     id="metadata8"><rdf:RDF><cc:Work
         rdf:about=""><dc:format>image/svg+xml</dc:format><dc:type
           rdf:resource="http://purl.org/dc/dcmitype/StillImage" /></cc:Work></rdf:RDF></metadata><defs
     id="defs6"><clipPath
       clipPathUnits="userSpaceOnUse"
       id="clipPath18"><path
         d="M 0,1000 H 1000 V 0 H 0 Z"
         id="path16" /></clipPath></defs><sodipodi:namedview
     pagecolor="#ffffff"
     bordercolor="#666666"
     borderopacity="1"
     objecttolerance="10"
     gridtolerance="10"
     guidetolerance="10"
     inkscape:pageopacity="0"
     inkscape:pageshadow="2"
     inkscape:window-width="640"
     inkscape:window-height="480"
     id="namedview4" /><g
     id="g10"
     inkscape:groupmode="layer"
     inkscape:label="Source File"
     transform="matrix(1.3333333,0,0,-1.3333333,0,1333.3333)"><g
       id="g12"><g
         id="g14"
         clip-path="url(#clipPath18)"><g
           id="g20"
           transform="translate(335.2129,337.6533)"><path
             d="m 0,0 c -18.619,40.984 -27.302,112.099 -27.302,112.099 0,0 -14.873,13.385 -24.788,52.055 -9.915,38.67 -4.462,93.7 -4.462,93.7 0,0 -2.974,26.771 -1.983,46.602 2.479,54.039 20.822,76.348 20.822,76.348 -2.479,41.645 16.36,64.946 41.149,83.289 7.436,23.301 45.114,56.021 54.534,55.526 14.873,-1.983 48.09,5.453 104.111,10.411 56.022,4.957 101.137,-32.721 101.137,-32.721 87.75,-22.805 91.22,-104.606 91.22,-104.606 43.628,-41.645 25.781,-128.404 25.781,-128.404 15.368,-26.276 11.897,-86.759 -0.992,-124.438 -12.89,-37.677 -31.234,-60.483 -31.234,-60.483 l -9.419,-45.114 17.352,-37.183 77.735,-34.157 c 66.446,67.859 107.413,160.766 107.413,263.243 0,207.817 -168.47,376.286 -376.287,376.286 -207.817,0 -376.287,-168.469 -376.287,-376.286 0,-85.152 34.309,-188.479 99.866,-266.607 z"
             style="fill:#ffcc00;fill-opacity:1;fill-rule:nonzero;stroke:none"
             id="path22" /></g><g
           id="g24"
           transform="translate(328.8813,513.7007)"><path
             d="m 0,0 c 0,0 -2.03,39.016 0,60.441 2.03,21.425 0.451,48.487 1.127,65.176 0.677,16.689 -0.225,39.918 12.179,59.088 12.403,19.169 20.502,24.441 36.76,22.101 16.259,-2.34 77.13,-21.2 93.142,-27.288 16.012,-6.09 21.875,-4.286 45.781,9.021 23.906,13.305 41.948,20.748 72.393,15.109 30.447,-5.638 42.173,-18.042 45.33,-27.063 3.159,-9.021 6.316,-47.359 5.639,-60.44 -0.677,-13.08 0.176,-21.489 1.554,-25.742 1.378,-4.253 11.752,-30.864 14.232,-61.536 2.482,-30.671 4.06,-60.214 1.805,-79.159 0,0 6.089,15.336 12.179,47.812 6.088,32.475 17.816,72.618 17.816,72.618 l 0.45,3.609 c 0,0 -3.608,50.517 -1.578,66.755 2.029,16.238 4.736,39.917 -20.748,58.411 -6.766,18.493 -11.953,60.891 -43.526,81.639 -31.574,20.748 -48.939,24.357 -64.726,32.025 -15.787,7.668 -42.398,21.65 -81.64,15.786 -39.241,-5.863 -61.794,-5.412 -80.963,-13.982 -19.169,-8.57 -62.019,-42.173 -71.04,-76.453 -4.06,-16.238 2.481,-36.309 2.481,-36.309 0,0 -12.855,-17.591 -21.199,-45.33 -8.345,-27.74 -3.834,-84.798 -3.834,-84.798 0,0 8.57,-20.297 10.148,-26.837 C -14.659,38.114 -1.579,-3.833 0,0"
             style="fill:#332211;fill-opacity:1;fill-rule:nonzero;stroke:none"
             id="path26" /></g><g
           id="g28"
           transform="translate(325.3857,513.7573)"><path
             d="m 0,0 c 0.245,-8.049 0.808,-11.402 1.15,-17.398 0.998,-17.459 9.81,-73.825 24.11,-110.072 14.299,-36.248 26.271,-72.163 43.231,-96.439 16.959,-24.275 40.238,-74.157 78.148,-82.471 37.91,-8.314 65.511,1.164 80.475,16.877 14.965,15.712 27.602,37.993 48.22,63.599 20.617,25.606 32.09,42.899 43.064,89.288 10.974,46.39 18.456,89.787 18.456,89.787"
             style="fill:none;stroke:#222222;stroke-width:7;stroke-linecap:round;stroke-linejoin:round;stroke-miterlimit:10;stroke-dasharray:none;stroke-opacity:1"
             id="path30" /></g><g
           id="g32"
           transform="translate(305.4194,586.479)"><path
             d="M 0,0 C 0,0 16.692,-57.918 19.797,-73.567"
             style="fill:none;stroke:#222222;stroke-width:5.801;stroke-linecap:round;stroke-linejoin:round;stroke-miterlimit:10;stroke-dasharray:none;stroke-opacity:1"
             id="path34" /></g><g
           id="g36"
           transform="translate(305.4194,586.479)"><path
             d="m 0,0 c 0,0 -2.993,-7.316 -1.663,-26.604 1.33,-19.288 5.92,-58.195 10.276,-69.834 4.356,-11.64 12.159,-24.324 15.74,-23.112"
             style="fill:none;stroke:#222222;stroke-width:7;stroke-linecap:round;stroke-linejoin:round;stroke-miterlimit:10;stroke-dasharray:none;stroke-opacity:1"
             id="path38" /></g><g
           id="g40"
           transform="translate(486.748,696.6011)"><path
             d="M 0,0 C 0,0 -37.503,56.15 -80.651,83.834"
             style="fill:none;stroke:#ffffff;stroke-width:6;stroke-linecap:round;stroke-linejoin:round;stroke-miterlimit:10;stroke-dasharray:none;stroke-opacity:1"
             id="path42" /></g><g
           id="g44"
           transform="translate(513.0937,713.3447)"><path
             d="M 0,0 C 0,0 -16.96,27.934 -30.428,41.402"
             style="fill:none;stroke:#ffffff;stroke-width:6;stroke-linecap:round;stroke-linejoin:round;stroke-miterlimit:10;stroke-dasharray:none;stroke-opacity:1"
             id="path46" /></g><g
           id="g48"
           transform="translate(466.7036,770.709)"><path
             d="M 0,0 C 0,0 -22.447,25.439 -38.908,35.416"
             style="fill:none;stroke:#ffffff;stroke-width:6;stroke-linecap:round;stroke-linejoin:round;stroke-miterlimit:10;stroke-dasharray:none;stroke-opacity:1"
             id="path50" /></g><g
           id="g52"
           transform="translate(439.0498,712.1621)"><path
             d="M 0,0 C 0,0 -33.202,34.604 -56.813,45.578"
             style="fill:none;stroke:#ffffff;stroke-width:6;stroke-linecap:round;stroke-linejoin:round;stroke-miterlimit:10;stroke-dasharray:none;stroke-opacity:1"
             id="path54" /></g><g
           id="g56"
           transform="translate(396.0029,725.2988)"><path
             d="M 0,0 C -12.183,8.857 -13.08,8.581 -25.42,14.14"
             style="fill:none;stroke:#ffffff;stroke-width:6;stroke-linecap:round;stroke-linejoin:round;stroke-miterlimit:10;stroke-dasharray:none;stroke-opacity:1"
             id="path58" /></g><g
           id="g60"
           transform="translate(550.0059,722.3237)"><path
             d="M 0,0 C 0,0 -24.831,48.896 -62.243,79.823"
             style="fill:none;stroke:#ffffff;stroke-width:6;stroke-linecap:round;stroke-linejoin:round;stroke-miterlimit:10;stroke-dasharray:none;stroke-opacity:1"
             id="path62" /></g><g
           id="g64"
           transform="translate(586.9189,723.8198)"><path
             d="M 0,0 C 0,0 -26.437,48.884 -54.371,72.828"
             style="fill:none;stroke:#ffffff;stroke-width:6;stroke-linecap:round;stroke-linejoin:round;stroke-miterlimit:10;stroke-dasharray:none;stroke-opacity:1"
             id="path66" /></g><g
           id="g68"
           transform="translate(621.0479,716.2217)"><path
             d="M 0,0 C -1.184,5.243 -10.151,28.867 -25.981,47.504"
             style="fill:none;stroke:#ffffff;stroke-width:6;stroke-linecap:round;stroke-linejoin:round;stroke-miterlimit:10;stroke-dasharray:none;stroke-opacity:1"
             id="path70" /></g><g
           id="g72"
           transform="translate(583.7598,778.6899)"><path
             d="M 0,0 C 0,0 -8.646,11.307 -19.62,21.615"
             style="fill:none;stroke:#ffffff;stroke-width:6;stroke-linecap:round;stroke-linejoin:round;stroke-miterlimit:10;stroke-dasharray:none;stroke-opacity:1"
             id="path74" /></g><g
           id="g76"
           transform="translate(645.6133,718.1665)"><path
             d="M 0,0 C 0,0 -10.02,45.077 -42.566,72.163"
             style="fill:none;stroke:#ffffff;stroke-width:6;stroke-linecap:round;stroke-linejoin:round;stroke-miterlimit:10;stroke-dasharray:none;stroke-opacity:1"
             id="path78" /></g><g
           id="g80"
           transform="translate(578.7764,808.5835)"><path
             d="M 0,0 C 0,0 -28.932,27.601 -75.155,13.302"
             style="fill:none;stroke:#ffffff;stroke-width:6;stroke-linecap:round;stroke-linejoin:round;stroke-miterlimit:10;stroke-dasharray:none;stroke-opacity:1"
             id="path82" /></g><g
           id="g84"
           transform="translate(447.5068,822.105)"><path
             d="M 0,0 C 0,0 -37.432,7.615 -76.114,-22.327"
             style="fill:none;stroke:#ffffff;stroke-width:6;stroke-linecap:round;stroke-linejoin:round;stroke-miterlimit:10;stroke-dasharray:none;stroke-opacity:1"
             id="path86" /></g><g
           id="g88"
           transform="translate(490.2974,819.1855)"><path
             d="M 0,0 -13.967,-4.323"
             style="fill:none;stroke:#ffffff;stroke-width:6;stroke-linecap:round;stroke-linejoin:round;stroke-miterlimit:10;stroke-dasharray:none;stroke-opacity:1"
             id="path90" /></g><g
           id="g92"
           transform="translate(347.6523,725.4829)"><path
             d="M 0,0 C 0,0 -10.309,19.288 -4.988,43.896"
             style="fill:none;stroke:#ffffff;stroke-width:6;stroke-linecap:round;stroke-linejoin:round;stroke-miterlimit:10;stroke-dasharray:none;stroke-opacity:1"
             id="path94" /></g><g
           id="g96"
           transform="translate(364.9448,752.0864)"><path
             d="M 0,0 C 0,0 -4.323,15.629 -1.995,32.589"
             style="fill:none;stroke:#ffffff;stroke-width:6;stroke-linecap:round;stroke-linejoin:round;stroke-miterlimit:10;stroke-dasharray:none;stroke-opacity:1"
             id="path98" /></g><g
           id="g100"
           transform="translate(385.5625,772.0391)"><path
             d="M 0,0 C 0,0 -1.663,13.302 3.326,22.613"
             style="fill:none;stroke:#ffffff;stroke-width:6;stroke-linecap:round;stroke-linejoin:round;stroke-miterlimit:10;stroke-dasharray:none;stroke-opacity:1"
             id="path102" /></g><g
           id="g104"
           transform="translate(655.0078,697.2163)"><path
             d="M 0,0 C 0,0 10.891,-3.658 23.028,-24.941"
             style="fill:none;stroke:#ffffff;stroke-width:6;stroke-linecap:round;stroke-linejoin:round;stroke-miterlimit:10;stroke-dasharray:none;stroke-opacity:1"
             id="path106" /></g><g
           id="g108"
           transform="translate(647.7744,682.252)"><path
             d="M 0,0 C 0,0 11.141,-9.312 14.466,-21.616"
             style="fill:none;stroke:#ffffff;stroke-width:6;stroke-linecap:round;stroke-linejoin:round;stroke-miterlimit:10;stroke-dasharray:none;stroke-opacity:1"
             id="path110" /></g><g
           id="g112"
           transform="translate(689.1768,585.1484)"><path
             d="m 0,0 c -4.323,-17.292 -9.229,-27.934 -12.97,-45.143 -3.741,-17.209 -9.227,-61.604 -13.967,-73.077"
             style="fill:none;stroke:#222222;stroke-width:5.801;stroke-linecap:round;stroke-linejoin:round;stroke-miterlimit:10;stroke-dasharray:none;stroke-opacity:1"
             id="path114" /></g><g
           id="g116"
           transform="translate(689.1768,585.1484)"><path
             d="M 0,0 C 0,0 5.985,-0.249 6.733,-14.216 7.481,-28.183 5.736,-37.411 7.98,-50.38 10.226,-63.35 8.23,-86.046 0,-102.756 c -8.23,-16.711 -15.271,-47.231 -31.828,-41.823"
             style="fill:none;stroke:#222222;stroke-width:7;stroke-linecap:round;stroke-linejoin:round;stroke-miterlimit:10;stroke-dasharray:none;stroke-opacity:1"
             id="path118" /></g><g
           id="g120"
           transform="translate(386.0806,302.3682)"><path
             d="M 0,0 C 0,0 -2.679,-24.491 9.791,-60.905"
             style="fill:none;stroke:#222222;stroke-width:7;stroke-linecap:round;stroke-linejoin:round;stroke-miterlimit:10;stroke-dasharray:none;stroke-opacity:1"
             id="path122" /></g><g
           id="g124"
           transform="translate(400.3608,227.4961)"><path
             d="m 0,0 c 0,0 13.136,-32.756 24.775,-47.72 4.988,-10.309 3.856,-13.967 23.543,-25.606 19.687,-11.639 35.317,-19.952 36.98,-22.945 1.662,-2.994 5.986,-17.958 15.297,-24.609"
             style="fill:none;stroke:#222222;stroke-width:7;stroke-linecap:round;stroke-linejoin:round;stroke-miterlimit:10;stroke-dasharray:none;stroke-opacity:1"
             id="path126" /></g><g
           id="g128"
           transform="translate(641.084,366.3555)"><path
             d="M 0,0 C 0,0 21.156,-51.566 3.697,-101.448"
             style="fill:none;stroke:#222222;stroke-width:7;stroke-linecap:round;stroke-linejoin:round;stroke-miterlimit:10;stroke-dasharray:none;stroke-opacity:1"
             id="path130" /></g><g
           id="g132"
           transform="translate(637.2998,247.9482)"><path
             d="m 0,0 c 0,0 -28.932,-61.354 -69.336,-92.78 -13.468,-7.982 -23.943,-22.946 -35.416,-27.436 -11.473,-4.489 -26.437,-10.973 -28.433,-13.468 -1.995,-2.494 -4.988,-17.459 -13.468,-23.943 -6.737,-5.151 -22.602,-13.136 -30.092,-27.706"
             style="fill:none;stroke:#222222;stroke-width:7;stroke-linecap:round;stroke-linejoin:round;stroke-miterlimit:10;stroke-dasharray:none;stroke-opacity:1"
             id="path134" /></g><g
           id="g136"
           transform="translate(645.6152,352.291)"><path
             d="m 0,0 c 0,0 19.618,-39.996 24.606,-52.466 4.989,-12.471 19.953,-64.347 -7.981,-123.208"
             style="fill:none;stroke:#222222;stroke-width:7;stroke-linecap:round;stroke-linejoin:round;stroke-miterlimit:10;stroke-dasharray:none;stroke-opacity:1"
             id="path138" /></g><g
           id="g140"
           transform="translate(651.6865,161.1533)"><path
             d="m 0,0 c 0,0 -33.342,-61.354 -38.33,-68.837 -4.988,-7.481 -21.449,-32.423 -21.449,-32.423 0,0 -11.473,23.445 -10.476,39.906 0.998,16.46 9.729,46.466 -17.582,52.664"
             style="fill:none;stroke:#222222;stroke-width:7;stroke-linecap:round;stroke-linejoin:round;stroke-miterlimit:10;stroke-dasharray:none;stroke-opacity:1"
             id="path142" /></g><g
           id="g144"
           transform="translate(359.458,198.5645)"><path
             d="M 0,0 C -11.972,69.336 8.306,143.59 8.306,143.59"
             style="fill:none;stroke:#222222;stroke-width:7;stroke-linecap:round;stroke-linejoin:round;stroke-miterlimit:10;stroke-dasharray:none;stroke-opacity:1"
             id="path146" /></g><g
           id="g148"
           transform="translate(361.7197,182.1035)"><path
             d="m 0,0 c 0,0 10.594,-64.347 24.119,-91.782 0,0 20.009,15.464 19.51,34.419 -0.499,18.955 -7.907,44.394 21.237,51.877"
             style="fill:none;stroke:#222222;stroke-width:7;stroke-linecap:round;stroke-linejoin:round;stroke-miterlimit:10;stroke-dasharray:none;stroke-opacity:1"
             id="path150" /></g><g
           id="g152"
           transform="translate(649.96,285.5215)"><path
             d="M 0,0 C 0,0 1.364,15.856 -28.095,31.874"
             style="fill:none;stroke:#222222;stroke-width:7;stroke-linecap:round;stroke-linejoin:round;stroke-miterlimit:10;stroke-dasharray:none;stroke-opacity:1"
             id="path154" /></g><g
           id="g156"
           transform="translate(814.0371,249.4248)"><path
             d="M 0,0 29.991,-11.683"
             style="fill:none;stroke:#222222;stroke-width:7;stroke-linecap:round;stroke-linejoin:round;stroke-miterlimit:10;stroke-dasharray:none;stroke-opacity:1"
             id="path158" /></g><g
           id="g160"
           transform="translate(667.3242,306.5762)"><path
             d="M 0,0 129.689,-50.52"
             style="fill:none;stroke:#222222;stroke-width:7;stroke-linecap:round;stroke-linejoin:round;stroke-miterlimit:10;stroke-dasharray:none;stroke-opacity:1"
             id="path162" /></g><g
           id="g164"
           transform="translate(594.3311,80.1592)"><path
             d="m 0,0 c -0.461,0.115 -5.408,0.901 -4.507,8.413 0.902,7.512 5.554,9.162 8.112,9.164 C 7.952,17.58 8.563,12.319 7.812,7.963 7.062,3.605 4.207,-1.052 0,0"
             style="fill:#222222;fill-opacity:1;fill-rule:nonzero;stroke:none"
             id="path166" /></g><g
           id="g168"
           transform="translate(388.6523,105.3975)"><path
             d="m 0,0 c -0.461,0.115 -5.408,0.901 -4.507,8.413 0.902,7.512 5.554,9.162 8.112,9.164 C 7.952,17.58 8.563,12.319 7.812,7.963 7.061,3.605 4.207,-1.052 0,0"
             style="fill:#222222;fill-opacity:1;fill-rule:nonzero;stroke:none"
             id="path170" /></g><g
           id="g172"
           transform="translate(445.8076,141.4502)"><path
             d="m 0,0 c -0.281,-0.338 -2.788,-4.164 -10.964,-0.112 -8.176,4.05 -8.514,8.696 -7.679,10.853 1.42,3.665 7.554,1.875 12.222,-0.667 C -1.754,7.532 2.563,3.085 0,0"
             style="fill:#222222;fill-opacity:1;fill-rule:nonzero;stroke:none"
             id="path174" /></g><g
           id="g176"
           transform="translate(696.0879,559.7007)"><path
             d="M 0,0 C 0,0 -7.962,10.975 -15.792,-4.11"
             style="fill:none;stroke:#222222;stroke-width:5;stroke-linecap:round;stroke-linejoin:round;stroke-miterlimit:10;stroke-dasharray:none;stroke-opacity:1"
             id="path178" /></g><g
           id="g180"
           transform="translate(672.2861,517.8779)"><path
             d="m 0,0 c 0,0 4.919,-12.54 3.422,-18.775 -1.496,-6.236 5.238,-8.73 8.48,-1.247 3.243,7.482 4.004,13.218 4.004,13.218"
             style="fill:none;stroke:#222222;stroke-width:5;stroke-linecap:round;stroke-linejoin:round;stroke-miterlimit:10;stroke-dasharray:none;stroke-opacity:1"
             id="path182" /></g><g
           id="g184"
           transform="translate(678.9775,551.0811)"><path
             d="M 0,0 C 0,0 8.23,-7.833 9.215,-16.063"
             style="fill:none;stroke:#222222;stroke-width:5;stroke-linecap:round;stroke-linejoin:round;stroke-miterlimit:10;stroke-dasharray:none;stroke-opacity:1"
             id="path186" /></g><g
           id="g188"
           transform="translate(324.8784,505.4692)"><path
             d="M 0,0 C 0,0 -6.074,1.864 -9.316,12.339"
             style="fill:none;stroke:#222222;stroke-width:5;stroke-linecap:round;stroke-linejoin:round;stroke-miterlimit:10;stroke-dasharray:none;stroke-opacity:1"
             id="path190" /></g><g
           id="g192"
           transform="translate(524.5664,484.8867)"><path
             d="m 0,0 c 0,0 6.235,5.736 15.962,14.465 9.727,8.73 30.179,20.701 57.614,-2.494"
             style="fill:none;stroke:#222222;stroke-width:5;stroke-linecap:round;stroke-linejoin:round;stroke-miterlimit:10;stroke-dasharray:none;stroke-opacity:1"
             id="path194" /></g><g
           id="g196"
           transform="translate(530.3027,503.3633)"><path
             d="m 0,0 c 0,0 6.734,8.48 16.461,10.475 9.727,1.996 36.414,2.037 55.868,-11.826"
             style="fill:none;stroke:#222222;stroke-width:4;stroke-linecap:round;stroke-linejoin:round;stroke-miterlimit:10;stroke-dasharray:none;stroke-opacity:1"
             id="path198" /></g><g
           id="g200"
           transform="translate(446.2524,483.6396)"><path
             d="m 0,0 c 0,0 -7.732,6.484 -15.463,11.972 -7.732,5.486 -20.619,21.199 -55.203,3.574"
             style="fill:none;stroke:#222222;stroke-width:5;stroke-linecap:round;stroke-linejoin:round;stroke-miterlimit:10;stroke-dasharray:none;stroke-opacity:1"
             id="path202" /></g><g
           id="g204"
           transform="translate(368.187,502.0122)"><path
             d="M 0,0 C 0,0 12.388,9.81 35.167,9.582 55.868,9.374 68.837,1.604 68.837,1.604"
             style="fill:none;stroke:#222222;stroke-width:4;stroke-linecap:round;stroke-linejoin:round;stroke-miterlimit:10;stroke-dasharray:none;stroke-opacity:1"
             id="path206" /></g><g
           id="g208"
           transform="translate(456.6025,364.9209)"><path
             d="m 0,0 c 0,0 4.115,1.371 9.104,-2.494 4.988,-3.866 8.729,-8.107 19.828,-7.608 11.098,0.499 14.714,5.737 18.082,7.982 3.367,2.244 7.731,3.242 10.101,3.242"
             style="fill:none;stroke:#222222;stroke-width:5;stroke-linecap:round;stroke-linejoin:round;stroke-miterlimit:10;stroke-dasharray:none;stroke-opacity:1"
             id="path210" /></g><g
           id="g212"
           transform="translate(521.0752,366.999)"><path
             d="M 0,0 C 0,0 10.06,0.914 11.907,10.725 13.902,21.698 8.479,26.521 8.479,26.521"
             style="fill:none;stroke:#222222;stroke-width:5;stroke-linecap:round;stroke-linejoin:round;stroke-miterlimit:10;stroke-dasharray:none;stroke-opacity:1"
             id="path214" /></g><g
           id="g216"
           transform="translate(448.6792,365.0039)"><path
             d="m 0,0 c 0,0 -8.413,0.997 -9.909,10.475 -1.497,9.477 3.159,16.794 3.159,16.794"
             style="fill:none;stroke:#222222;stroke-width:5;stroke-linecap:round;stroke-linejoin:round;stroke-miterlimit:10;stroke-dasharray:none;stroke-opacity:1"
             id="path218" /></g><g
           id="g220"
           transform="translate(423.5562,325.3896)"><path
             d="M 0,0 C 0,0 3.118,1.995 17.458,0 31.799,-1.995 54.87,-5.736 72.453,-2.12 90.037,1.496 124.58,13.842 135.927,12.096"
             style="fill:none;stroke:#222222;stroke-width:5;stroke-linecap:round;stroke-linejoin:round;stroke-miterlimit:10;stroke-dasharray:none;stroke-opacity:1"
             id="path222" /></g><g
           id="g224"
           transform="translate(429.0469,326.2617)"><path
             d="m 0,0 c 0,0 5.358,-2.867 13.589,-7.481 8.23,-4.615 20.576,-15.09 44.893,-13.843 24.318,1.247 38.659,13.718 43.398,17.958 4.738,4.239 13.971,12.069 18.209,13.953"
             style="fill:none;stroke:#222222;stroke-width:5;stroke-linecap:round;stroke-linejoin:round;stroke-miterlimit:10;stroke-dasharray:none;stroke-opacity:1"
             id="path226" /></g><g
           id="g228"
           transform="translate(472.1909,333.5781)"><path
             d="m 0,0 c 0,0 10.974,-1.663 12.969,-1.663 1.995,0 14.632,3.492 14.632,3.492"
             style="fill:none;stroke:#222222;stroke-width:5;stroke-linecap:round;stroke-linejoin:round;stroke-miterlimit:10;stroke-dasharray:none;stroke-opacity:1"
             id="path230" /></g><g
           id="g232"
           transform="translate(468.5327,282.8652)"><path
             d="M 0,0 C 0,0 18.955,-7.316 38.576,1.829"
             style="fill:none;stroke:#222222;stroke-width:5;stroke-linecap:round;stroke-linejoin:round;stroke-miterlimit:10;stroke-dasharray:none;stroke-opacity:1"
             id="path234" /></g><g
           id="g236"
           transform="translate(555.4697,508.4028)"><path
             d="m 0,0 c 0,0 -6.586,-8.801 -2.221,-18.529 4.365,-9.726 17.084,-8.978 23.445,-4.987 6.359,3.99 10.388,18.755 -0.468,24.186 C 9.252,2.921 1.073,0.389 0,0"
             style="fill:#222222;fill-opacity:1;fill-rule:nonzero;stroke:none"
             id="path238" /></g><g
           id="g240"
           transform="translate(399.0386,507.4194)"><path
             d="m 0,0 c 0,0 -7.739,-3.828 -6.991,-15.051 0.748,-11.223 11.805,-16.461 20.784,-12.637 8.978,3.824 13.198,15.095 7.472,23.426 C 15.206,0.163 3.25,-0.08 0,0"
             style="fill:#222222;fill-opacity:1;fill-rule:nonzero;stroke:none"
             id="path242" /></g><g
           id="g244"
           transform="translate(448.6792,513.9839)"><path
             d="m 0,0 c 0,0 1.896,7.15 -4.755,19.122 l 0.665,-6.153 c 0,0 -6.318,10.475 -13.967,15.298 l 3.659,-6.153 c 0,0 -6.768,5.654 -11.365,7.483 l 3.383,-4.49 c 0,0 -6.152,2.993 -13.8,4.49 -7.649,1.496 -35.583,-0.167 -45.559,-1.164 l 3.99,2.826 -9.145,-2.992 5.321,4.821 c 0,0 -10.309,-4.489 -17.625,-10.641 -7.316,-6.152 -11.639,-21.638 -11.639,-21.638 0,0 5.986,1.519 10.974,3.015 4.988,1.497 11.806,1.996 11.806,1.996 l -7.649,1.163 c 0,0 10.475,2.827 20.784,2.495 C -64.613,9.145 -36.18,6.651 -27.867,4.656 -19.553,2.661 -8.745,0 -8.745,0 L -13.9,4.822 -4.422,0 l -1.995,5.653 5.32,-6.484 z"
             style="fill:#222222;fill-opacity:1;fill-rule:nonzero;stroke:none"
             id="path246" /></g><g
           id="g248"
           transform="translate(507.9395,516.1455)"><path
             d="m 0,0 c 0,0 -4.489,6.983 -5.321,9.977 -0.831,2.992 -0.997,3.99 -0.997,3.99 L -2.162,8.48 c 0,0 -1.163,6.484 0.665,11.473 l 2.661,-6.817 c 0,0 0.166,6.817 5.32,12.969 L 5.487,18.623 c 0,0 2.992,6.318 8.48,9.81 l -2.161,-6.152 c 0,0 5.819,5.487 9.809,7.981 l -2.494,-6.485 8.314,5.487 -1.497,-5.487 c 0,0 6.153,3.575 14.881,4.573 8.73,0.997 35.915,0.498 47.638,-2.994 l -7.731,4.906 15.462,-5.155 -5.985,5.82 c 0,0 17.957,-7.15 25.19,-15.464 7.233,-8.313 11.639,-21.282 11.639,-21.282 0,0 -17.791,7.149 -30.428,8.812 l 9.81,0.499 c 0,0 -13.302,3.491 -33.088,4.489 C 53.54,8.979 28.267,4.323 21.615,3.326 L 26.104,6.485 13.634,1.732 16.627,6.318 6.318,0.333 9.478,5.819 1.829,-1.353 Z"
             style="fill:#222222;fill-opacity:1;fill-rule:nonzero;stroke:none"
             id="path250" /></g><g
           id="g252"
           transform="translate(205.7832,260.1191)"><path
             d="M 0,0 -37.183,-12.982"
             style="fill:none;stroke:#222222;stroke-width:7;stroke-linecap:round;stroke-linejoin:round;stroke-miterlimit:10;stroke-dasharray:none;stroke-opacity:1"
             id="path254" /></g><g
           id="g256"
           transform="translate(361.3135,314.4209)"><path
             d="M 0,0 -137.734,-48.089"
             style="fill:none;stroke:#222222;stroke-width:7;stroke-linecap:round;stroke-linejoin:round;stroke-miterlimit:10;stroke-dasharray:none;stroke-opacity:1"
             id="path258" /></g></g></g></g></svg>
