<?xml version="1.0" encoding="utf-8"?>
<svg version="1.2" baseProfile="tiny-ps"
	 id="svg22" xmlns:cc="http://creativecommons.org/ns#" xmlns:dc="http://purl.org/dc/elements/1.1/" xmlns:inkscape="http://www.inkscape.org/namespaces/inkscape" xmlns:rdf="http://www.w3.org/1999/02/22-rdf-syntax-ns#" xmlns:sodipodi="http://sodipodi.sourceforge.net/DTD/sodipodi-0.dtd" xmlns:svg="http://www.w3.org/2000/svg"
	 xmlns="http://www.w3.org/2000/svg" xmlns:xlink="http://www.w3.org/1999/xlink" viewBox="8 8 384 384"
	 xml:space="preserve">
<ellipse fill="#FFFFFF" stroke="#000000" stroke-miterlimit="10" cx="200" cy="200" rx="190" ry="190"/>
<path fill="#332211" d="M290.961,135.62c0.961-7.686,2.241-18.894-9.82-27.648c-3.202-8.753-5.658-28.821-20.602-38.642
	c-14.944-9.82-23.164-11.528-30.638-15.158c-7.471-3.629-20.067-10.247-38.641-7.472c-18.574,2.776-29.249,2.562-38.322,6.618
	c-9.074,4.056-29.356,19.962-33.625,36.187c-1.921,7.686,1.174,17.186,1.174,17.186s-6.085,8.327-10.034,21.456
	c-3.95,13.13-1.815,40.137-1.815,40.137s4.056,9.607,4.803,12.702c0.748,3.096,6.939,22.951,7.686,21.136c0,0-0.96-18.467,0-28.608
	c0.961-10.141,0.214-22.95,0.534-30.85c0.32-7.898-0.106-18.894,5.765-27.967c5.87-9.073,9.703-11.569,17.399-10.461
	c7.696,1.108,36.507,10.034,44.086,12.916c7.579,2.883,10.355,2.029,21.669-4.269c11.315-6.299,19.855-9.821,34.266-7.153
	c14.411,2.669,19.962,8.54,21.456,12.81c1.495,4.27,2.989,22.417,2.669,28.608c-0.321,6.191,0.083,10.172,0.735,12.184
	c0.651,2.013,5.563,14.609,6.736,29.127c1.174,14.517,1.921,28.5,0.854,37.468c0,0,2.882-7.26,5.765-22.632
	c2.881-15.371,8.432-34.372,8.432-34.372l0.215-1.708C291.709,167.215,290.001,143.304,290.961,135.62z"/>
<g>
	<path fill="none" d="M200.496,293.529c-2.598,0.534-5.44,0.739-8.326,0.739c-5.942,0-12.068-0.868-16.627-1.514l-1.098-0.154
		c0.373,0.208,0.758,0.423,1.161,0.648c0.589,0.331,1.223,0.723,1.912,1.15c3.895,2.414,9.227,5.726,18.636,5.237
		c7.467-0.383,14.108-3.132,19.74-8.171c0.48-0.431,1.868-1.659,3.471-2.972c-2.647,0.678-5.46,1.471-8.142,2.229
		C207.199,291.859,203.398,292.933,200.496,293.529z"/>
	<path fill="none" d="M113.583,200.562c-0.212-0.686,0.172-1.413,0.858-1.625c0.682-0.212,1.413,0.171,1.625,0.858
		c0.468,1.513,1.058,2.578,1.624,3.327c-0.001-0.024-0.002-0.047-0.003-0.072c-0.022-0.068-0.063-0.127-0.078-0.199
		c-0.895-4.507-4.254-16.707-6.688-25.358c0.024,0.823,0.064,1.7,0.129,2.649c0.685,9.919,2.876,27.528,4.752,32.542
		c1.04,2.777,2.319,5.248,3.441,7.026c-0.576-4.031-0.928-7.285-1.042-9.275c-0.061-1.07-0.137-1.959-0.215-2.859
		c-0.021-0.247-0.042-0.497-0.063-0.751C116.753,206.129,114.783,204.441,113.583,200.562z"/>
	<path fill="none" d="M293.113,177.449c-0.014-0.748-0.034-1.513-0.077-2.319c-0.074-1.383-0.26-2.386-0.48-3.12
		c-0.534,1.886-1.077,3.628-1.614,5.31c0.17-0.034,0.341-0.071,0.515-0.084C292.057,177.189,292.61,177.282,293.113,177.449z"/>
	<path fill="none" d="M272.015,302.64c0.434-10.077-1.458-19.082-2.994-24.559c-2.021,6.552-4.187,11.669-6.733,16.277
		C267.171,297.241,270.173,300.129,272.015,302.64z"/>
	<path fill="none" d="M287.438,222.172c0.879-2.179,1.71-4.236,2.596-6.035c3.708-7.529,4.631-17.818,3.616-23.676
		c-0.679-3.924-0.62-7.135-0.558-10.534c0.01-0.513,0.019-1.031,0.025-1.556c-0.404-0.308-0.925-0.586-1.477-0.543
		c-0.614,0.05-1.272,0.511-1.924,1.325c-0.347,1.103-0.686,2.217-1.014,3.365c1.283,1.466,3.42,4.311,3.785,7.36
		c0.086,0.712-0.423,1.359-1.136,1.445c-0.053,0.006-0.104,0.009-0.156,0.009c-0.648,0-1.209-0.485-1.288-1.146
		c-0.196-1.638-1.128-3.281-2.04-4.545c-0.193,0.778-0.383,1.575-0.565,2.415c-0.566,2.606-1.229,6.615-1.934,10.972
		c0.689,2.055,1.767,5.877,1.185,8.306c-0.166,0.691,0.02,1.102,0.197,1.16c0.211,0.07,0.84-0.188,1.36-1.39
		c1.436-3.312,1.796-5.887,1.799-5.913c0.098-0.71,0.767-1.205,1.46-1.114c0.711,0.096,1.211,0.747,1.116,1.458
		c-0.016,0.118-0.401,2.937-1.99,6.603c-0.915,2.111-2.374,2.967-3.667,2.967c-0.313,0-0.617-0.05-0.901-0.145
		c-1.04-0.348-1.967-1.391-2.023-2.961c-1.069,6.345-2.154,11.998-3.228,14.742c-0.144,0.818-0.823,4.682-1.923,10.416
		C282.082,234.705,284.6,229.202,287.438,222.172z"/>
	<path fill="#222222" d="M277.159,223.815c0.021-0.08,0.039-0.161,0.071-0.24C277.199,223.651,277.18,223.733,277.159,223.815z"/>
	<path fill="#222222" d="M258.207,294.169c0.479-0.882,1.581-1.211,2.467-0.729c0.563,0.306,1.095,0.611,1.613,0.918
		c2.547-4.608,4.712-9.726,6.733-16.277c-0.956-3.411-1.774-5.46-1.803-5.528c-0.38-0.93,0.065-1.991,0.994-2.372
		c0.928-0.383,1.991,0.063,2.372,0.992c0.03,0.073,0.112,0.278,0.228,0.581c0.382-1.461,0.761-2.979,1.139-4.576
		c2.462-10.409,4.563-20.556,6.089-28.339c-0.641-0.039-1.304-0.145-2.005-0.373c-0.954-0.313-1.476-1.34-1.164-2.295
		c0.313-0.953,1.333-1.471,2.295-1.164c0.552,0.181,1.079,0.222,1.589,0.151c1.1-5.734,1.779-9.598,1.923-10.416
		c-0.026,0.068-0.054,0.148-0.08,0.213c-0.29,0.701-0.968,1.125-1.683,1.125c-0.231,0-0.466-0.044-0.693-0.138
		c-0.809-0.334-1.247-1.185-1.094-2.012c-0.002,0.007-0.005,0.014-0.006,0.021c-0.035,0.204-3.59,20.736-8.712,42.389
		c-5.031,21.27-10.209,29.344-20.031,41.541c-4.396,5.46-8.076,10.666-11.323,15.259c-4.063,5.748-7.573,10.712-11.399,14.729
		c-7.733,8.121-20.997,10.84-36.384,7.467c-13.75-3.017-23.636-18.896-30.854-30.489c-1.782-2.863-3.466-5.567-5.034-7.813
		c-6.381-9.135-11.301-21.979-16.51-35.576c-1.227-3.202-2.469-6.446-3.751-9.696c-6.853-17.37-10.851-43.904-11.287-51.535
		c-0.063-1.108-0.142-2.029-0.222-2.963c-0.124-1.438-0.251-2.927-0.321-5.225c-0.012-0.383-0.14-0.727-0.35-1.008
		c0.088,0.401,0.17,0.78,0.235,1.109c0.196,0.985-0.445,1.943-1.43,2.139c-0.119,0.023-0.239,0.035-0.356,0.035
		c-0.289,0-0.556-0.09-0.805-0.216c0.58,0.509,1.012,0.67,1.052,0.685c0.667,0.234,1.037,0.965,0.816,1.637
		c-0.18,0.546-0.68,0.897-1.225,0.897c-0.125,0-0.251-0.019-0.377-0.058c-0.104-0.032-0.452-0.154-0.928-0.437
		c0.021,0.254,0.042,0.504,0.063,0.751c0.078,0.9,0.154,1.789,0.215,2.859c0.114,1.99,0.466,5.244,1.042,9.275
		c0.902,1.429,1.702,2.41,2.192,2.735c0.79-0.069,1.566,0.436,1.836,1.231c0.323,0.951-0.188,1.984-1.139,2.307
		c-0.259,0.088-0.519,0.129-0.778,0.129c-0.385,0-0.77-0.095-1.153-0.261c1.921,11.406,5.158,26.154,9.535,37.247
		c1.277,3.238,2.516,6.471,3.738,9.661c1.391,3.631,2.762,7.206,4.147,10.68c0.091-0.358,0.148-0.573,0.155-0.599
		c0.265-0.969,1.261-1.544,2.234-1.275c0.969,0.265,1.54,1.265,1.276,2.233c-0.022,0.082-0.554,2.073-1.28,5.457
		c2.008,4.745,4.088,9.22,6.336,13.286c0.023-0.33,0.044-0.534,0.05-0.589c0.109-0.998,1.013-1.711,2.006-1.61
		c0.998,0.109,1.719,1.006,1.611,2.004c-0.005,0.05-0.227,2.297,0.018,6.219c0.125,0.184,0.246,0.373,0.372,0.554
		c1.514,2.166,3.172,4.83,4.928,7.651c7.561,12.144,17.915,28.775,33.164,32.119c4.58,1.005,8.995,1.498,13.172,1.498
		c11.018,0,20.367-3.438,26.626-10.008c4.009-4.21,7.59-9.275,11.735-15.14c3.216-4.549,6.861-9.705,11.187-15.077
		c3.618-4.493,6.626-8.448,9.236-12.665c-0.485-0.287-0.983-0.573-1.513-0.861C258.054,296.156,257.727,295.052,258.207,294.169z"/>
	<path fill="#222222" d="M117.743,203.193c-0.02-0.048-0.04-0.095-0.056-0.145c0.001,0.025,0.002,0.048,0.003,0.072
		C117.708,203.145,117.725,203.17,117.743,203.193z"/>
	<path fill="#222222" d="M110.134,165.866c0.053,0.003,0.105,0.006,0.157,0.014C110.239,165.872,110.187,165.87,110.134,165.866z"/>
	<path fill="#222222" d="M110.811,166.043c0.052,0.025,0.103,0.051,0.151,0.081C110.913,166.094,110.862,166.068,110.811,166.043z"
		/>
	<path fill="#222222" d="M110.476,165.921c0.056,0.014,0.111,0.029,0.166,0.049C110.587,165.95,110.532,165.935,110.476,165.921z"/>
	<path fill="#222222" d="M111.58,166.746c0.029,0.049,0.057,0.099,0.082,0.15C111.636,166.844,111.609,166.795,111.58,166.746z"/>
	<path fill="#222222" d="M111.116,166.229c0.044,0.033,0.087,0.067,0.127,0.104C111.203,166.296,111.16,166.262,111.116,166.229z"/>
	<path fill="#222222" d="M111.373,166.465c0.038,0.042,0.074,0.085,0.107,0.131C111.446,166.55,111.411,166.507,111.373,166.465z"/>
	<path fill="#222222" d="M108.387,166.896c0.027-0.058,0.056-0.114,0.089-0.167C108.442,166.783,108.414,166.839,108.387,166.896z"
		/>
	<path fill="#222222" d="M108.574,166.585c0.036-0.047,0.072-0.093,0.112-0.136C108.646,166.493,108.61,166.538,108.574,166.585z"/>
	<path fill="#222222" d="M109.519,165.926c-0.032,0.009-0.061,0.026-0.092,0.037c0.051-0.018,0.103-0.035,0.155-0.048
		C109.561,165.92,109.54,165.92,109.519,165.926z"/>
	<path fill="#222222" d="M108.813,166.325c0.043-0.039,0.088-0.076,0.135-0.11C108.9,166.249,108.856,166.286,108.813,166.325z"/>
	<path fill="#222222" d="M109.097,166.116c0.05-0.029,0.1-0.057,0.151-0.082C109.196,166.06,109.146,166.087,109.097,166.116z"/>
	<path fill="#222222" d="M109.782,165.879c0.051-0.007,0.102-0.014,0.153-0.017C109.884,165.864,109.833,165.872,109.782,165.879z"
		/>
	<path fill="#222222" d="M111.713,168.346c-0.034,0.093-0.977,2.748-0.792,9.146c2.433,8.651,5.793,20.851,6.688,25.358
		c0.014,0.072,0.055,0.131,0.078,0.199c0.016,0.05,0.036,0.097,0.056,0.145c0.297,0.384,0.584,0.679,0.843,0.905
		c0.249,0.126,0.516,0.216,0.805,0.216c0.117,0,0.237-0.012,0.356-0.035c0.985-0.195,1.626-1.153,1.43-2.139
		c-0.065-0.329-0.147-0.708-0.235-1.109c-1.9-8.604-8.862-32.788-9.171-33.861c-0.01-0.034-0.027-0.063-0.039-0.097
		C111.873,167.474,111.882,167.922,111.713,168.346z"/>
	<path fill="#222222" d="M122.133,225.982c0.951-0.322,1.461-1.355,1.139-2.307c-0.27-0.796-1.046-1.301-1.836-1.231
		c-0.49-0.325-1.29-1.307-2.192-2.735c-1.122-1.778-2.401-4.249-3.441-7.026c-1.876-5.014-4.067-22.623-4.752-32.542
		c-0.065-0.949-0.105-1.826-0.129-2.649c-0.185-6.398,0.758-9.053,0.792-9.146c0.168-0.424,0.16-0.872,0.019-1.272
		c-0.021-0.06-0.044-0.12-0.071-0.177c-0.024-0.051-0.052-0.101-0.082-0.15c-0.031-0.052-0.063-0.102-0.099-0.15
		c-0.034-0.045-0.07-0.089-0.107-0.131c-0.041-0.046-0.084-0.089-0.13-0.131c-0.04-0.037-0.083-0.071-0.127-0.104
		c-0.049-0.038-0.101-0.073-0.154-0.106c-0.049-0.029-0.1-0.055-0.151-0.081c-0.034-0.016-0.063-0.038-0.099-0.052
		c-0.023-0.009-0.047-0.012-0.071-0.021c-0.055-0.02-0.11-0.035-0.166-0.049c-0.062-0.016-0.123-0.031-0.185-0.041
		c-0.052-0.008-0.104-0.01-0.157-0.014c-0.066-0.004-0.132-0.007-0.198-0.004c-0.052,0.002-0.103,0.01-0.153,0.017
		c-0.067,0.009-0.134,0.02-0.2,0.036c-0.052,0.013-0.104,0.03-0.155,0.048c-0.061,0.021-0.121,0.044-0.179,0.072
		c-0.052,0.025-0.102,0.052-0.151,0.082c-0.051,0.03-0.101,0.063-0.149,0.098c-0.047,0.034-0.092,0.071-0.135,0.11
		c-0.044,0.04-0.086,0.081-0.126,0.125c-0.04,0.043-0.076,0.088-0.112,0.136c-0.035,0.046-0.068,0.094-0.099,0.144
		c-0.033,0.054-0.062,0.11-0.089,0.167c-0.015,0.031-0.034,0.057-0.047,0.089c-0.161,0.395-1.559,4.123-0.917,13.406
		c0.615,8.921,2.804,27.767,4.974,33.567c0.179,0.479,3.858,10.182,7.807,11.893c0.383,0.166,0.768,0.261,1.153,0.261
		C121.615,226.111,121.875,226.07,122.133,225.982z"/>
	<path fill="#FFFFFF" d="M158.523,74.55c-0.73-0.468-1.699-0.256-2.167,0.473c-0.468,0.729-0.256,1.699,0.473,2.167
		c19.904,12.771,37.541,38.969,37.717,39.232c0.302,0.452,0.799,0.697,1.305,0.697c0.299,0,0.602-0.085,0.87-0.264
		c0.72-0.481,0.914-1.455,0.433-2.175C196.422,113.583,178.986,87.68,158.523,74.55z"/>
	<path fill="#FFFFFF" d="M208.322,109.194c0.276,0,0.558-0.074,0.812-0.228c0.74-0.45,0.977-1.414,0.526-2.154
		c-0.331-0.546-8.199-13.458-14.633-19.892c-0.612-0.612-1.605-0.612-2.218,0s-0.612,1.605,0,2.218
		c6.167,6.167,14.091,19.171,14.171,19.302C207.275,108.925,207.792,109.194,208.322,109.194z"/>
	<path fill="#FFFFFF" d="M168.759,62.37c-0.74-0.45-1.705-0.212-2.153,0.528c-0.449,0.74-0.212,1.705,0.528,2.153
		c7.494,4.542,17.948,16.341,18.053,16.46c0.31,0.351,0.742,0.53,1.176,0.53c0.369,0,0.739-0.129,1.037-0.392
		c0.649-0.573,0.711-1.564,0.138-2.213C187.098,78.937,176.664,67.161,168.759,62.37z"/>
	<path fill="#FFFFFF" d="M172.142,109.271c0.308,0.321,0.719,0.482,1.131,0.482c0.391,0,0.782-0.145,1.085-0.437
		c0.625-0.6,0.646-1.592,0.046-2.217c-0.65-0.678-16.048-16.651-27.361-21.91c-0.785-0.366-1.718-0.024-2.083,0.761
		c-0.365,0.786-0.024,1.718,0.761,2.083C156.5,93.044,171.986,109.109,172.142,109.271z"/>
	<path fill="#FFFFFF" d="M143.939,94.923c-0.7-0.308-1.495-0.658-2.429-1.079c-0.789-0.356-1.718-0.004-2.074,0.786
		s-0.004,1.718,0.786,2.074c0.944,0.425,1.747,0.779,2.454,1.09c3.623,1.594,4.596,2.023,9.3,5.442c0.278,0.203,0.601,0.3,0.92,0.3
		c0.485,0,0.963-0.224,1.27-0.646c0.509-0.7,0.354-1.681-0.346-2.19C148.844,97.082,147.707,96.581,143.939,94.923z"/>
	<path fill="#FFFFFF" d="M195.122,64.594c-0.552,0.667-0.458,1.656,0.209,2.208c17.242,14.252,28.947,37.055,29.063,37.284
		c0.276,0.544,0.827,0.858,1.398,0.858c0.239,0,0.481-0.055,0.709-0.17c0.772-0.392,1.08-1.336,0.688-2.108
		c-0.486-0.957-12.105-23.604-29.861-38.281C196.661,63.833,195.673,63.927,195.122,64.594z"/>
	<path fill="#FFFFFF" d="M218.549,67.006c-0.659-0.564-1.647-0.487-2.211,0.17c-0.563,0.658-0.487,1.647,0.17,2.211
		c12.844,11.01,25.253,33.798,25.377,34.027c0.283,0.524,0.823,0.822,1.38,0.822c0.252,0,0.508-0.061,0.745-0.189
		c0.762-0.412,1.045-1.363,0.633-2.125C244.126,100.966,231.837,78.397,218.549,67.006z"/>
	<path fill="#FFFFFF" d="M259.417,107.832c0.114,0,0.23-0.013,0.347-0.039c0.845-0.191,1.375-1.031,1.184-1.875
		c-0.654-2.893-5.034-14.207-12.632-23.154c-0.561-0.659-1.549-0.739-2.21-0.18c-0.66,0.561-0.741,1.55-0.181,2.21
		c7.287,8.58,11.438,19.492,11.964,21.815C258.054,107.338,258.7,107.832,259.417,107.832z"/>
	<path fill="#FFFFFF" d="M240.523,77.649c0.309,0.403,0.774,0.615,1.246,0.615c0.332,0,0.667-0.105,0.952-0.323
		c0.688-0.526,0.818-1.51,0.292-2.198c-0.17-0.223-4.231-5.511-9.459-10.421c-0.631-0.593-1.622-0.562-2.216,0.069
		c-0.593,0.631-0.563,1.624,0.069,2.216C236.44,72.336,240.483,77.597,240.523,77.649z"/>
	<path fill="#FFFFFF" d="M271.044,106.911c0.112,0,0.228-0.012,0.342-0.038c0.845-0.188,1.378-1.025,1.189-1.871
		c-0.198-0.893-5.038-22.008-20.675-35.021c-0.666-0.555-1.655-0.463-2.208,0.202c-0.554,0.666-0.464,1.654,0.202,2.208
		c14.797,12.314,19.573,33.084,19.62,33.292C269.678,106.415,270.325,106.911,271.044,106.911z"/>
	<path fill="#FFFFFF" d="M204.3,57.749c20.675-6.397,33.481,5.416,34.028,5.934c0.304,0.289,0.692,0.432,1.081,0.432
		c0.413,0,0.826-0.163,1.135-0.485c0.598-0.627,0.574-1.619-0.053-2.217c-0.585-0.56-14.624-13.62-37.117-6.66
		c-0.828,0.256-1.291,1.134-1.035,1.961C202.595,57.542,203.479,58.003,204.3,57.749z"/>
	<path fill="#FFFFFF" d="M177.588,54.61c-0.752-0.154-18.636-3.581-37.298,10.865c-0.685,0.53-0.81,1.515-0.28,2.2
		c0.309,0.399,0.772,0.608,1.241,0.608c0.335,0,0.673-0.107,0.959-0.328c17.445-13.503,34.524-10.315,34.755-10.271
		c0.848,0.172,1.675-0.376,1.848-1.224C178.985,55.61,178.437,54.783,177.588,54.61z"/>
	<path fill="#FFFFFF" d="M197.066,56.03l-6.61,2.046c-0.827,0.256-1.29,1.134-1.034,1.962c0.208,0.673,0.828,1.104,1.498,1.104
		c0.153,0,0.31-0.022,0.464-0.07l6.61-2.046c0.827-0.256,1.29-1.134,1.034-1.962C198.771,56.238,197.896,55.775,197.066,56.03z"/>
	<path fill="#FFFFFF" d="M127.984,79.57c-0.85-0.184-1.681,0.354-1.864,1.201c-2.611,12.072,2.3,21.455,2.511,21.848
		c0.282,0.528,0.823,0.828,1.383,0.828c0.249,0,0.501-0.06,0.736-0.185c0.764-0.406,1.053-1.355,0.648-2.12
		c-0.046-0.086-4.571-8.803-2.212-19.709C129.368,80.588,128.83,79.753,127.984,79.57z"/>
	<path fill="#FFFFFF" d="M137.467,72.31c-0.858-0.121-1.649,0.482-1.767,1.34c-1.133,8.252,0.899,15.742,0.986,16.057
		c0.192,0.695,0.823,1.15,1.51,1.15c0.138,0,0.279-0.019,0.418-0.057c0.834-0.23,1.325-1.093,1.095-1.928
		c-0.02-0.071-1.944-7.203-0.902-14.795C138.925,73.218,138.325,72.427,137.467,72.31z"/>
	<path fill="#FFFFFF" d="M150.271,67.758c-0.762-0.408-1.714-0.122-2.123,0.642c-2.567,4.792-1.782,11.361-1.748,11.639
		c0.099,0.793,0.774,1.373,1.553,1.373c0.064,0,0.129-0.004,0.195-0.012c0.859-0.106,1.469-0.889,1.364-1.748
		c-0.007-0.058-0.69-5.868,1.4-9.771C151.322,69.117,151.035,68.167,150.271,67.758z"/>
	<path fill="#FFFFFF" d="M286.392,128.632c0.264,0,0.53-0.066,0.775-0.206c0.753-0.429,1.015-1.387,0.586-2.139
		c-5.973-10.473-11.528-12.436-11.762-12.514c-0.816-0.275-1.688,0.162-1.97,0.972c-0.283,0.811,0.146,1.701,0.953,1.995
		c0.047,0.017,4.759,1.817,10.054,11.102C285.317,128.348,285.848,128.632,286.392,128.632z"/>
	<path fill="#FFFFFF" d="M277.401,132.983c0.189,0.699,0.822,1.159,1.513,1.159c0.136,0,0.273-0.018,0.41-0.055
		c0.836-0.226,1.33-1.087,1.104-1.923c-1.685-6.229-7.124-10.832-7.354-11.025c-0.665-0.555-1.652-0.466-2.209,0.197
		c-0.556,0.665-0.467,1.653,0.197,2.209C271.111,123.587,275.972,127.697,277.401,132.983z"/>
	<path fill="#222222" d="M287.795,183.548c0.134,0.13,0.471,0.47,0.908,0.97c0.328-1.148,0.667-2.262,1.014-3.365
		c-0.373,0.467-0.744,1.048-1.104,1.739C288.438,183.23,288.136,183.457,287.795,183.548z"/>
	<path fill="#222222" d="M278.221,225.942c0.228,0.094,0.462,0.138,0.693,0.138c0.715,0,1.393-0.424,1.683-1.125
		c0.026-0.064,0.054-0.145,0.08-0.213c1.073-2.744,2.158-8.397,3.228-14.742c-0.014-0.394,0.012-0.813,0.122-1.271
		c0.501-2.09-0.961-6.563-1.566-8.109c-0.262-0.668,0.067-1.422,0.736-1.685c0.664-0.258,1.421,0.067,1.684,0.735
		c0.064,0.164,0.255,0.66,0.489,1.359c0.704-4.357,1.367-8.366,1.934-10.972c0.183-0.84,0.372-1.637,0.565-2.415
		c-0.967-1.341-1.91-2.255-1.929-2.273c-0.518-0.496-0.537-1.318-0.042-1.837c0.18-0.188,0.406-0.288,0.643-0.344
		c-0.379-0.391-0.498-0.984-0.233-1.493c1.331-2.563,2.889-4.023,4.635-4.375c0.537-1.682,1.08-3.424,1.614-5.31
		c-0.444-1.483-1.033-1.85-1.143-1.904c-0.917-0.127-1.604-0.933-1.565-1.877c0.042-1.004,0.896-1.779,1.893-1.742
		c0.004,0,0.014,0.001,0.019,0.001c-0.856-0.048-1.644,0.515-1.858,1.375c-0.914,3.653-1.896,6.707-2.845,9.66
		c-1.193,3.715-2.32,7.224-3.308,11.762c-0.659,3.033-1.427,7.794-2.24,12.835c-1.375,8.532-2.935,18.202-4.274,21.447
		c-0.001,0.003-0.001,0.006-0.003,0.009c-0.032,0.079-0.051,0.16-0.071,0.24c-0.01,0.039-0.025,0.076-0.032,0.115
		C276.974,224.758,277.412,225.608,278.221,225.942z"/>
	<path fill="#222222" d="M289.848,168.228c-0.039,0.944,0.648,1.75,1.565,1.877c0.109,0.055,0.698,0.421,1.143,1.904
		c0.221,0.734,0.406,1.737,0.48,3.12c0.043,0.807,0.063,1.571,0.077,2.319c1.721,0.572,2.816,2.056,2.875,2.137
		c0.422,0.581,0.292,1.394-0.289,1.815c-0.579,0.421-1.387,0.293-1.811-0.283c-0.013-0.017-0.318-0.401-0.771-0.747
		c-0.007,0.525-0.016,1.043-0.025,1.556c-0.063,3.399-0.121,6.61,0.558,10.534c1.015,5.858,0.092,16.146-3.616,23.676
		c-0.886,1.799-1.717,3.856-2.596,6.035c-2.838,7.03-5.355,12.533-8.684,12.986c-0.51,0.07-1.037,0.029-1.589-0.151
		c-0.962-0.307-1.982,0.211-2.295,1.164c-0.312,0.955,0.21,1.982,1.164,2.295c0.701,0.229,1.364,0.334,2.005,0.373
		c0.141,0.009,0.286,0.036,0.423,0.036c6.156-0.001,9.557-8.424,12.349-15.342c0.854-2.114,1.66-4.111,2.486-5.789
		c4.092-8.308,5.077-19.32,3.937-25.904c-0.619-3.583-0.566-6.485-0.505-9.847c0.04-2.175,0.081-4.423-0.06-7.058
		c-0.427-7.957-4.39-8.421-4.91-8.448c-0.005,0-0.015-0.001-0.019-0.001C290.743,166.449,289.89,167.224,289.848,168.228z"/>
	<path fill="#222222" d="M150.01,302.346c0.108-0.998-0.613-1.895-1.611-2.004c-0.993-0.101-1.896,0.612-2.006,1.61
		c-0.006,0.055-0.026,0.259-0.05,0.589c-0.181,2.61-0.524,13.564,4.772,29.027c0.259,0.755,0.965,1.229,1.721,1.229
		c0.195,0,0.394-0.031,0.589-0.099c0.951-0.325,1.457-1.359,1.131-2.311c-3.17-9.254-4.222-16.874-4.53-21.824
		C149.783,304.643,150.005,302.396,150.01,302.346z"/>
	<path fill="#222222" d="M200.66,390.056c-1.381-2.109-2.349-4.5-2.978-6.055c-0.313-0.775-0.54-1.336-0.757-1.727
		c-0.785-1.413-3.521-3.044-11.32-7.553c-2.094-1.211-4.404-2.547-6.848-3.991c-7.35-4.346-8.053-5.964-9.456-9.189
		c-0.286-0.657-0.595-1.367-0.977-2.157c-0.055-0.115-0.123-0.224-0.201-0.325c-5.287-6.797-11.414-21.994-11.475-22.146
		c-0.375-0.934-1.433-1.387-2.366-1.012c-0.932,0.374-1.385,1.434-1.011,2.365c0.25,0.623,6.001,14.887,11.453,22.325
		c0.686-0.251,1.415-0.479,2.196-0.681c0.971-0.25,1.964,0.337,2.214,1.31s-0.336,1.964-1.31,2.214
		c-0.519,0.133-1.002,0.282-1.466,0.441c1.537,3.375,3.181,5.632,10.546,9.986c2.454,1.451,4.775,2.794,6.878,4.01
		c4.586,2.651,9.329,5.394,9.96,6.17c0.109,0.195,0.341,0.77,0.565,1.324c0.497,1.227,1.179,2.911,2.109,4.654
		c1.192,0.021,2.383,0.045,3.581,0.045C200.221,390.064,200.439,390.057,200.66,390.056z"/>
	<path fill="#222222" d="M270.245,276.888c0.9-0.443,1.991-0.071,2.434,0.832c0.019,0.039,0.065,0.133,0.125,0.255
		c-0.834-3.059-1.613-5.229-1.992-6.221c-0.115-0.303-0.197-0.508-0.228-0.581c-0.381-0.929-1.444-1.375-2.372-0.992
		c-0.929,0.381-1.374,1.442-0.994,2.372c0.028,0.068,0.847,2.117,1.803,5.528c1.536,5.477,3.428,14.481,2.994,24.559
		c3.12,4.254,2.919,7.426,2.9,7.641c-0.082,0.947-0.876,1.663-1.811,1.663c-0.052,0-0.104-0.003-0.158-0.007
		c-0.989-0.085-1.726-0.948-1.658-1.936c0-0.013,0-0.06-0.004-0.13c-0.499,3.115-1.252,6.273-2.35,9.41
		c-0.332,0.948,0.168,1.985,1.116,2.317c0.198,0.069,0.401,0.103,0.601,0.103c0.751,0,1.455-0.469,1.717-1.219
		c3.559-10.166,3.851-20.382,2.979-28.864c-2.961-6.229-5.883-12.19-5.935-12.297C268.971,278.42,269.343,277.33,270.245,276.888z"
		/>
	<path fill="#222222" d="M232.747,371.33c1.339,0.304,2.509,0.719,3.546,1.217c18.772-15.137,31.904-42.679,32.463-43.862
		c0.428-0.908,0.039-1.992-0.87-2.421c-0.906-0.429-1.992-0.039-2.421,0.87c-0.135,0.285-13.681,28.724-32.201,43.186
		c-0.643,0.385-1.264,0.803-1.874,1.236C231.781,371.313,232.263,371.218,232.747,371.33z"/>
	<path fill="#222222" d="M230.571,372.701c0.107-0.474,0.392-0.859,0.767-1.109c-2.281,1.629-4.36,3.549-6.384,5.423
		c-2.82,2.613-5.483,5.082-8.088,6.101c-4.699,1.838-12.773,5.174-14.2,6.915c2.579-0.035,5.146-0.113,7.699-0.25
		c2.1-0.952,4.766-2.08,7.826-3.276c3.247-1.271,6.155-3.967,9.235-6.82c1.707-1.582,3.456-3.195,5.289-4.587
		c-0.258-0.073-0.498-0.157-0.773-0.22C230.963,374.655,230.349,373.681,230.571,372.701z"/>
	<path fill="#222222" d="M279.581,299.629c0.293-0.962,1.311-1.503,2.271-1.21l0.79,0.241c-3.254-7.218-8.905-18.781-9.838-20.686
		c-0.06-0.122-0.106-0.216-0.125-0.255c-0.442-0.903-1.533-1.275-2.434-0.832c-0.902,0.442-1.274,1.532-0.832,2.434
		c0.052,0.106,2.974,6.068,5.935,12.297c2.311,4.859,4.644,9.882,5.655,12.411c0.434,1.086,10.475,26.929-3.731,56.862
		c-0.431,0.908-0.044,1.993,0.863,2.424c0.252,0.119,0.518,0.176,0.779,0.176c0.681,0,1.333-0.384,1.645-1.039
		c14.15-29.817,5.577-55.19,3.962-59.415l-3.729-1.138C279.83,301.606,279.288,300.59,279.581,299.629z"/>
	<path fill="#222222" d="M236.293,372.547c-1.037-0.498-2.207-0.913-3.546-1.217c-0.484-0.112-0.966-0.017-1.357,0.226
		c-0.019,0.012-0.034,0.024-0.052,0.036c-0.375,0.25-0.659,0.636-0.767,1.109c-0.223,0.979,0.392,1.954,1.371,2.176
		c0.275,0.063,0.516,0.146,0.773,0.22c5.396,1.539,6.992,5.463,7.093,10.778c1.215-0.259,2.428-0.522,3.635-0.805
		C243.209,380.012,241.616,375.106,236.293,372.547z"/>
	<path fill="#222222" d="M275.519,369.859c0.479-0.883,0.152-1.986-0.73-2.467c-0.882-0.479-1.987-0.153-2.467,0.73
		c-0.06,0.11-2.378,4.375-5.346,9.79c1.775-0.669,3.538-1.363,5.288-2.083C274.065,372.532,275.341,370.186,275.519,369.859z"/>
	<path fill="#222222" d="M140.011,281.564c-0.973-0.269-1.969,0.307-2.234,1.275c-0.007,0.025-0.064,0.24-0.155,0.599
		c-0.192,0.753-0.547,2.198-0.995,4.243l1.13-0.247c0.98-0.214,1.951,0.408,2.165,1.39c0.214,0.981-0.408,1.951-1.39,2.165
		l-2.713,0.592c-2.482,12.624-5.988,36.979-2.012,60.012c0.153,0.885,0.921,1.51,1.791,1.51c0.103,0,0.207-0.009,0.312-0.026
		c0.99-0.172,1.654-1.112,1.483-2.103c-4.233-24.521,0.242-50.655,2.615-61.719c0.726-3.384,1.257-5.375,1.28-5.457
		C141.551,282.829,140.98,281.829,140.011,281.564z"/>
	<path fill="#222222" d="M138.466,358.778c-0.164-0.99-1.097-1.662-2.09-1.499c-0.991,0.163-1.663,1.1-1.5,2.091
		c0.115,0.698,1.693,10.184,4.18,20.713c1.351,0.457,2.71,0.896,4.074,1.323C140.324,369.948,138.496,358.961,138.466,358.778z"/>
	<path fill="#222222" d="M169.135,361.22c-0.25-0.973-1.243-1.56-2.214-1.31c-0.782,0.201-1.51,0.43-2.196,0.681
		c-10.851,3.976-10.067,14.009-9.484,21.455c0.075,0.953,0.139,1.861,0.19,2.75c1.223,0.294,2.451,0.575,3.683,0.845
		c-0.049-1.271-0.145-2.59-0.246-3.879c-0.601-7.669-1.164-14.931,7.491-17.887c0.464-0.159,0.948-0.309,1.466-0.441
		C168.799,363.184,169.385,362.192,169.135,361.22z"/>
	<path fill="#222222" d="M271.288,310.001c-0.067,0.987,0.669,1.851,1.658,1.936c0.054,0.004,0.106,0.007,0.158,0.007
		c0.935,0,1.729-0.716,1.811-1.663c0.019-0.215,0.22-3.387-2.9-7.641c-1.842-2.511-4.844-5.398-9.728-8.281
		c-0.519-0.307-1.051-0.612-1.613-0.918c-0.886-0.482-1.988-0.153-2.467,0.729c-0.48,0.883-0.153,1.987,0.729,2.467
		c0.529,0.288,1.027,0.574,1.513,0.861c10.067,5.943,10.789,11.461,10.836,12.374C271.288,309.941,271.288,309.988,271.288,310.001z
		"/>
	<path fill="#222222" d="M348.418,318.72l-65.776-20.06l-0.79-0.241c-0.96-0.293-1.978,0.248-2.271,1.21
		c-0.293,0.961,0.249,1.978,1.21,2.271l3.729,1.138l61.41,18.728C346.771,320.759,347.599,319.742,348.418,318.72z"/>
	<path fill="#222222" d="M176.472,378.316c1.213-1.46-0.83-3.564-3.04-4.768c-2.209-1.203-5.112-2.05-5.784-0.316
		c-0.396,1.021-0.236,3.221,3.635,5.138C175.153,380.288,176.339,378.477,176.472,378.316z"/>
	<path fill="#222222" d="M287.732,183.487c0.009,0.008,0.034,0.033,0.063,0.061c0.341-0.091,0.644-0.318,0.818-0.656
		c0.359-0.691,0.73-1.272,1.104-1.739c0.651-0.814,1.31-1.275,1.924-1.325c0.552-0.043,1.072,0.235,1.477,0.543
		c0.453,0.346,0.759,0.73,0.771,0.747c0.424,0.577,1.231,0.704,1.811,0.283c0.581-0.421,0.711-1.234,0.289-1.815
		c-0.059-0.081-1.154-1.564-2.875-2.137c-0.503-0.167-1.057-0.26-1.657-0.213c-0.174,0.013-0.345,0.05-0.515,0.084
		c-1.746,0.353-3.304,1.813-4.635,4.375c-0.265,0.509-0.146,1.103,0.233,1.493C286.953,183.09,287.401,183.172,287.732,183.487z"/>
	<path fill="#222222" d="M285.928,212.961c0.284,0.095,0.588,0.145,0.901,0.145c1.293,0,2.752-0.855,3.667-2.967
		c1.589-3.666,1.975-6.484,1.99-6.603c0.095-0.711-0.405-1.362-1.116-1.458c-0.693-0.091-1.362,0.404-1.46,1.114
		c-0.003,0.026-0.363,2.602-1.799,5.913c-0.521,1.202-1.149,1.46-1.36,1.39c-0.178-0.059-0.363-0.469-0.197-1.16
		c0.582-2.429-0.495-6.251-1.185-8.306c-0.234-0.699-0.425-1.195-0.489-1.359c-0.263-0.668-1.02-0.993-1.684-0.735
		c-0.669,0.262-0.998,1.016-0.736,1.685c0.605,1.547,2.067,6.02,1.566,8.109c-0.11,0.459-0.136,0.878-0.122,1.271
		C283.961,211.57,284.888,212.613,285.928,212.961z"/>
	<path fill="#222222" d="M291.196,193.333c0.052,0,0.104-0.003,0.156-0.009c0.713-0.085,1.222-0.732,1.136-1.445
		c-0.365-3.049-2.502-5.894-3.785-7.36c-0.438-0.5-0.774-0.84-0.908-0.97c-0.028-0.028-0.054-0.053-0.063-0.061
		c-0.331-0.315-0.779-0.397-1.192-0.299c-0.236,0.056-0.463,0.155-0.643,0.344c-0.495,0.519-0.476,1.341,0.042,1.837
		c0.019,0.018,0.962,0.932,1.929,2.273c0.912,1.264,1.844,2.907,2.04,4.545C289.987,192.847,290.548,193.333,291.196,193.333z"/>
	<path fill="#222222" d="M117.743,203.193c-0.018-0.023-0.035-0.049-0.053-0.072c-0.566-0.749-1.156-1.814-1.624-3.327
		c-0.213-0.687-0.943-1.07-1.625-0.858c-0.686,0.212-1.07,0.94-0.858,1.625c1.201,3.88,3.17,5.567,4.341,6.262
		c0.476,0.282,0.824,0.404,0.928,0.437c0.126,0.039,0.253,0.058,0.377,0.058c0.544,0,1.044-0.352,1.225-0.897
		c0.221-0.672-0.148-1.402-0.816-1.637c-0.04-0.015-0.472-0.176-1.052-0.685C118.327,203.872,118.04,203.577,117.743,203.193z"/>
	<path fill="#222222" d="M220.438,207.946c-4.611,4.138-7.567,6.857-7.567,6.857c-0.528,0.485-0.563,1.308-0.076,1.836
		c0.256,0.278,0.605,0.42,0.956,0.42c0.314,0,0.63-0.113,0.88-0.344c0.003-0.003,2.949-2.712,7.544-6.836
		c1.485-1.333,3.236-2.579,5.236-3.477c0.467-1.098,0.967-1.774,0.967-1.774c0.508-0.184,4.379-1.382,9.823-0.316
		c1.113,0.557,1.879,1.327,2.391,2.201c2.248,0.967,4.632,2.447,7.146,4.572c0.548,0.463,1.368,0.394,1.831-0.153
		c0.464-0.548,0.395-1.368-0.153-1.831c-1.979-1.674-3.891-2.971-5.729-3.966c-4.433-1.686-9.049-2.356-12.827-2.471
		C226.345,203.428,222.792,205.834,220.438,207.946z"/>
	<path fill="#222222" d="M250.699,208.694c0.325,0,0.645-0.152,0.848-0.437c0.333-0.468,0.224-1.117-0.243-1.45
		c-10.104-7.201-23.396-6.56-27.255-5.77c-4.918,1.009-8.257,5.154-8.397,5.33c-0.356,0.449-0.281,1.102,0.167,1.459
		c0.45,0.358,1.102,0.282,1.461-0.165c0.029-0.037,3.023-3.733,7.188-4.587c1.461-0.3,3.717-0.49,6.392-0.41
		c3.778,0.114,8.395,0.785,12.827,2.471c2.229,0.848,4.411,1.94,6.411,3.365C250.28,208.631,250.49,208.694,250.699,208.694z"/>
	<path fill="#222222" d="M154.334,205.095c1.539,0.038,7.198-0.078,10.065,2.018c0.474,0.689,0.796,1.424,0.996,2.172
		c0.684,0.482,1.303,0.975,1.878,1.432c0.482,0.384,0.925,0.734,1.338,1.027c3.573,2.536,7.199,5.572,7.236,5.603
		c0.243,0.205,0.54,0.305,0.834,0.305c0.371,0,0.739-0.158,0.996-0.465c0.461-0.55,0.39-1.369-0.161-1.83
		c-0.037-0.031-3.741-3.134-7.402-5.731c-0.378-0.269-0.783-0.591-1.224-0.942c-1.64-1.304-3.891-3.09-7.144-4.078
		c-1.635-0.254-3.429-0.426-5.38-0.445c-1.749-0.009-3.354,0.116-4.832,0.319c-2.607,0.593-5.553,1.656-8.89,3.356
		c-0.64,0.326-0.894,1.108-0.568,1.748c0.326,0.641,1.107,0.893,1.748,0.568c3.269-1.666,6.083-2.678,8.532-3.22
		C153.28,205.625,154.334,205.095,154.334,205.095z"/>
	<path fill="#222222" d="M161.748,204.604c6.214,0.961,9.986,3.156,10.033,3.185c0.494,0.294,1.131,0.133,1.425-0.36
		c0.294-0.492,0.135-1.129-0.357-1.424c-0.26-0.156-6.494-3.825-16.459-3.924c-11.031-0.139-17.051,4.561-17.302,4.76
		c-0.449,0.355-0.525,1.007-0.17,1.457c0.205,0.26,0.509,0.396,0.817,0.396c0.225,0,0.452-0.072,0.642-0.222
		c0.047-0.036,3.985-3.007,11.16-3.993c1.479-0.203,3.083-0.328,4.832-0.319C158.319,204.178,160.113,204.35,161.748,204.604z"/>
	<path fill="#222222" d="M204.556,274.627c1.361-0.907,3.193-1.315,4.059-1.315c0.718,0,1.3-0.582,1.3-1.3s-0.582-1.3-1.3-1.3
		c-1.383,0-3.694,0.549-5.5,1.753c-0.381,0.254-0.741,0.554-1.123,0.872c-1.347,1.123-3.022,2.521-6.774,2.689
		c-4.16,0.185-5.808-1.143-7.715-2.681c-0.268-0.217-0.538-0.435-0.815-0.649c-2.296-1.779-4.546-1.71-5.517-1.386
		c-0.669,0.223-1.023,0.936-0.816,1.61c0.208,0.675,0.933,1.06,1.611,0.863c0.057-0.017,1.399-0.375,3.129,0.967
		c0.264,0.204,0.521,0.411,0.776,0.617c1.998,1.611,4.059,3.274,8.576,3.274c0.286,0,0.582-0.007,0.888-0.021
		c4.626-0.208,6.849-2.062,8.321-3.289C203.996,275.049,204.291,274.804,204.556,274.627z"/>
	<path fill="#222222" d="M211.975,270.266c-0.712,0.068-1.235,0.699-1.17,1.412c0.062,0.675,0.628,1.182,1.292,1.182
		c0.04,0,0.08-0.002,0.12-0.006c1.984-0.181,5.959-1.694,6.796-6.138c1.063-5.847-1.91-8.567-2.037-8.681
		c-0.535-0.476-1.358-0.43-1.835,0.108c-0.477,0.536-0.428,1.357,0.108,1.835c0.021,0.018,1.998,1.917,1.208,6.265
		C215.781,269.829,212.144,270.249,211.975,270.266z"/>
	<path fill="#222222" d="M175.334,258.5c-0.606-0.386-1.409-0.205-1.794,0.398c-0.101,0.159-2.459,3.935-1.683,8.85
		c0.682,4.317,4.105,5.843,5.82,6.046c0.052,0.007,0.104,0.01,0.155,0.01c0.649,0,1.21-0.486,1.289-1.146
		c0.084-0.713-0.425-1.359-1.137-1.443c-0.03-0.004-3.011-0.397-3.56-3.871c-0.619-3.915,1.291-7.021,1.308-7.048
		C176.118,259.689,175.94,258.886,175.334,258.5z"/>
	<path fill="#222222" d="M167.393,290.228c0.338-0.633,1.126-0.871,1.759-0.532c0.023,0.013,2.088,1.119,5.293,2.905l1.098,0.154
		c4.559,0.646,10.685,1.514,16.627,1.514c2.885,0,5.728-0.205,8.326-0.739c2.902-0.597,6.703-1.67,10.728-2.807
		c2.682-0.758,5.494-1.551,8.142-2.229c1.905-1.562,4.117-3.242,5.487-3.852c0.655-0.292,1.424,0.006,1.715,0.659
		c0.291,0.656-0.004,1.424-0.659,1.716c-0.03,0.014-0.074,0.041-0.106,0.057c1.789-0.297,3.276-0.415,4.279-0.262
		c0.693,0.11,1.372-0.377,1.481-1.087c0.109-0.709-0.377-1.372-1.087-1.481c-3.803-0.586-12.018,1.733-19.958,3.977
		c-3.979,1.124-7.735,2.186-10.545,2.764c-7.505,1.542-17.47,0.131-24.064-0.803l-1.525-0.215c-6.739-0.937-8.702-0.09-9.143,0.192
		c-0.605,0.387-0.782,1.189-0.396,1.795c0.369,0.577,1.117,0.764,1.713,0.443c0.074-0.028,0.536-0.188,1.682-0.242
		c-0.198-0.106-0.309-0.166-0.314-0.169C167.292,291.647,167.054,290.86,167.393,290.228z"/>
	<path fill="#222222" d="M225.802,287.074c0.032-0.016,0.076-0.043,0.106-0.057c0.655-0.292,0.95-1.06,0.659-1.716
		c-0.291-0.653-1.06-0.951-1.715-0.659c-1.37,0.609-3.582,2.29-5.487,3.852c-1.603,1.313-2.99,2.541-3.471,2.972
		c-5.632,5.039-12.273,7.788-19.74,8.171c-9.409,0.488-14.741-2.823-18.636-5.237c-0.689-0.428-1.323-0.819-1.912-1.15
		c-0.403-0.226-0.788-0.44-1.161-0.648c-3.206-1.786-5.271-2.893-5.293-2.905c-0.633-0.339-1.421-0.101-1.759,0.532
		c-0.339,0.633-0.101,1.42,0.532,1.759c0.005,0.003,0.116,0.063,0.314,0.169c0.789,0.426,3.026,1.64,6.096,3.361
		c0.56,0.313,1.16,0.687,1.814,1.092c3.694,2.29,9.154,5.674,18.205,5.674c0.626,0,1.271-0.016,1.933-0.05
		c8.075-0.415,15.255-3.385,21.34-8.829C220.558,290.78,224.178,287.847,225.802,287.074z"/>
	<path fill="#222222" d="M201.677,285.259c-2.722,0.753-6.016,1.581-6.578,1.606c-0.584,0-3.828-0.451-5.944-0.772
		c-0.712-0.107-1.372,0.382-1.479,1.091c-0.108,0.709,0.38,1.372,1.09,1.479c0.884,0.134,5.341,0.802,6.334,0.802
		c1.011,0,5.422-1.189,7.271-1.7c0.691-0.191,1.097-0.907,0.906-1.6C203.085,285.474,202.368,285.073,201.677,285.259z"/>
	<path fill="#222222" d="M204.938,309.338c-8.622,4.02-17.107,0.883-17.244,0.831c-0.668-0.256-1.421,0.076-1.679,0.745
		s0.075,1.422,0.745,1.68c0.236,0.092,3.741,1.409,8.631,1.409c3.143,0,6.859-0.545,10.645-2.31c0.65-0.303,0.933-1.076,0.629-1.727
		C206.362,309.316,205.591,309.034,204.938,309.338z"/>
	<path fill="#222222" d="M238.201,204.313c-5.444-1.065-9.315,0.133-9.823,0.316c0,0-0.5,0.677-0.967,1.774
		c-0.698,1.642-1.323,4.236-0.085,6.996c2.066,4.604,8.086,4.25,11.098,2.36c2.358-1.479,4.022-6.083,2.168-9.246
		C240.08,205.64,239.314,204.869,238.201,204.313z"/>
	<path fill="#222222" d="M151.026,212.219c0.355,5.313,5.588,7.791,9.838,5.981c3.506-1.494,5.47-5.386,4.532-8.916
		c-0.199-0.748-0.521-1.482-0.996-2.172c-2.867-2.096-8.526-1.979-10.065-2.018c0,0-1.054,0.53-1.977,1.836
		C151.561,208.057,150.862,209.759,151.026,212.219z"/>
	<path fill="#222222" d="M142.369,197.501c4.88,0.157,18.338,1.338,22.273,2.282c3.934,0.945,9.05,2.204,9.05,2.204l-2.439-2.282
		l4.485,2.282l-0.944-2.676l2.518,3.07l0.52-0.395c0,0,0.897-3.384-2.251-9.051l0.314,2.912c0,0-2.99-4.958-6.61-7.24l1.732,2.912
		c0,0-3.204-2.676-5.38-3.542l1.601,2.125c0,0-2.911-1.416-6.531-2.125c-3.621-0.708-16.843,0.079-21.564,0.551l1.888-1.338
		l-4.328,1.417l2.519-2.283c0,0-4.88,2.125-8.343,5.037c-3.463,2.912-5.509,10.242-5.509,10.242s2.833-0.719,5.194-1.427
		c2.361-0.709,5.588-0.944,5.588-0.944l-3.621-0.551C132.531,198.683,137.49,197.344,142.369,197.501z"/>
	<path fill="#222222" d="M260.499,193.646c-3.424-3.935-11.924-7.32-11.924-7.32l2.833,2.755l-7.318-2.44l3.66,2.322
		c-5.55-1.653-18.416-1.889-22.549-1.416c-4.132,0.472-7.044,2.164-7.044,2.164l0.708-2.598l-3.934,2.598l1.18-3.07
		c-1.889,1.181-4.643,3.778-4.643,3.778l1.022-2.912c-2.597,1.653-4.014,4.644-4.014,4.644l0.472-3.542
		c-2.438,2.912-2.518,6.139-2.518,6.139l-1.259-3.227c-0.866,2.361-0.315,5.43-0.315,5.43l-1.967-2.597c0,0,0.078,0.472,0.471,1.889
		c0.395,1.416,2.52,4.722,2.52,4.722l0.864,0.64l3.621-3.395l-1.496,2.597l4.881-2.833l-1.417,2.171l5.902-2.249l-2.125,1.495
		c3.148-0.472,15.111-2.676,24.477-2.204c9.364,0.472,15.661,2.125,15.661,2.125l-4.643,0.236c5.98,0.787,14.401,4.171,14.401,4.171
		S263.923,197.581,260.499,193.646z"/>
	<path fill="#222222" d="M139.922,288.824c-0.214-0.981-1.185-1.604-2.165-1.39l-1.13,0.247l-93.044,20.297
		c0.75,1.084,1.508,2.16,2.28,3.227l89.957-19.624l2.713-0.592C139.514,290.775,140.136,289.806,139.922,288.824z"/>
</g>
<g>
	<path fill="none" d="M294.346,283.972l-8.291-17.62l3.801-20.903c0,0,11.747-11.056,17.273-38.005
		c5.529-26.95-1.899-51.135-1.899-51.135s5.017-43.36-12.953-59.081c0,0-6.74-40.942-43.882-48.37c0,0-19.349-15.806-42.669-15.806
		c-23.322,0-34.464,3.109-46.902,2.85c-6.996-0.259-27.208,13.474-30.577,25.913c0,0-26.431,13.474-22.286,41.2
		c0,0-17.101,20.731-9.846,59.6c0,0-5.96,52.604,13.216,71.001c0,0,3.368,25.395,10.105,39.646l-83.79,18.425
		c32.237,57.56,93.822,96.558,164.354,96.558c65.734,0,123.696-33.875,157.375-85.076L294.346,283.972z"/>
	<path fill="#FFCC00" d="M109.33,233.615c-19.176-18.397-13.216-71.001-13.216-71.001c-7.255-38.869,9.846-59.6,9.846-59.6
		c-4.145-27.726,22.286-41.2,22.286-41.2c3.369-12.439,23.581-26.172,30.577-25.913c12.438,0.259,23.58-2.85,46.902-2.85
		c23.32,0,42.669,15.806,42.669,15.806c37.142,7.428,43.882,48.37,43.882,48.37c17.97,15.721,12.953,59.081,12.953,59.081
		s7.429,24.185,1.899,51.135c-5.526,26.949-17.273,38.005-17.273,38.005l-3.801,20.903l8.291,17.62l63.029,19.196
		c19.503-29.649,30.87-65.104,30.87-103.168c0-103.798-84.446-188.244-188.245-188.244S11.755,96.202,11.755,200
		c0,33.267,8.686,64.538,23.891,91.687l83.79-18.425C112.698,259.01,109.33,233.615,109.33,233.615z"/>
	<path fill="#222222" d="M200,8.118C94.195,8.118,8.117,94.196,8.117,200c0,105.805,86.078,191.883,191.883,191.883
		S391.884,305.805,391.884,200C391.884,94.196,305.805,8.118,200,8.118z M200,388.244c-70.532,0-132.117-38.998-164.354-96.558
		C20.44,264.538,11.755,233.267,11.755,200C11.755,96.202,96.201,11.756,200,11.756S388.245,96.202,388.245,200
		c0,38.064-11.367,73.519-30.87,103.168C323.696,354.369,265.734,388.244,200,388.244z"/>
</g>
</svg>
