<svg xmlns="http://www.w3.org/2000/svg" baseProfile="tiny-ps" version="1.2" viewBox="8 8 384 384" xmlns:v="https://vecta.io/nano"><title>Vincent bitter</title><path fill="#fff" d="M10 200a180 180 0 1 0 380 0 190 190 0 1 0-380 0"/><path fill="#321" d="M290.961 135.62c.961-7.686 2.241-18.894-9.82-27.648-3.202-8.753-5.658-28.821-20.602-38.642s-23.164-11.528-30.638-15.158-20.067-10.247-38.641-7.472-29.249 2.562-38.322 6.618-29.356 19.962-33.625 36.187c-1.921 7.686 1.174 17.186 1.174 17.186s-6.085 8.327-10.034 21.456-1.815 40.137-1.815 40.137 4.056 9.607 4.803 12.702 6.939 22.951 7.686 21.136c0 0-.96-18.467 0-28.608s.214-22.95.534-30.85-.106-18.894 5.765-27.967 9.703-11.569 17.399-10.461 36.507 10.034 44.086 12.916 10.355 2.029 21.669-4.269 19.855-9.821 34.266-7.153 19.962 8.54 21.456 12.81 2.989 22.417 2.669 28.608.083 10.172.735 12.184 5.563 14.609 6.736 29.127 1.921 28.5.854 37.468c0 0 2.882-7.26 5.765-22.632s8.432-34.372 8.432-34.372l.215-1.708c.001 0-1.707-23.911-.747-31.595z"/><g fill="#222"><path d="M277.159 223.815c.021-.08.039-.161.071-.24-.031.076-.05.158-.071.24zm-18.952 70.354c.479-.882 1.581-1.211 2.467-.729l1.613.918c2.547-4.608 4.712-9.726 6.733-16.277-.956-3.411-1.774-5.46-1.803-5.528a1.82 1.82 0 0 1 .994-2.372c.928-.383 1.991.063 2.372.992.03.073.112.278.228.581l1.139-4.576c2.462-10.409 4.563-20.556 6.089-28.339-.641-.039-1.304-.145-2.005-.373a1.82 1.82 0 0 1-1.164-2.295c.313-.953 1.333-1.471 2.295-1.164.552.181 1.079.222 1.589.151l1.923-10.416-.08.213a1.82 1.82 0 0 1-1.683 1.125c-.231 0-.466-.044-.693-.138a1.82 1.82 0 0 1-1.094-2.012c-.002.007-.005.014-.006.021-.035.204-3.59 20.736-8.712 42.389-5.031 21.27-10.209 29.344-20.031 41.541-4.396 5.46-8.076 10.666-11.323 15.259-4.063 5.748-7.573 10.712-11.399 14.729-7.733 8.121-20.997 10.84-36.384 7.467-13.75-3.017-23.636-18.896-30.854-30.489l-5.034-7.813c-6.381-9.135-11.301-21.979-16.51-35.576l-3.751-9.696c-6.853-17.37-10.851-43.904-11.287-51.535-.063-1.108-.142-2.029-.222-2.963-.124-1.438-.251-2.927-.321-5.225a1.76 1.76 0 0 0-.35-1.008l.235 1.109a1.82 1.82 0 0 1-1.43 2.139c-.119.023-.239.035-.356.035-.289 0-.556-.09-.805-.216.58.509 1.012.67 1.052.685.667.234 1.037.965.816 1.637-.18.546-.68.897-1.225.897a1.27 1.27 0 0 1-.377-.058 4.59 4.59 0 0 1-.928-.437l.063.751.215 2.859c.114 1.99.466 5.244 1.042 9.275.902 1.429 1.702 2.41 2.192 2.735.79-.069 1.566.436 1.836 1.231a1.82 1.82 0 0 1-1.139 2.307c-.259.088-.519.129-.778.129-.385 0-.77-.095-1.153-.261 1.921 11.406 5.158 26.154 9.535 37.247l3.738 9.661 4.147 10.68.155-.599c.265-.969 1.261-1.544 2.234-1.275a1.82 1.82 0 0 1 1.276 2.233c-.022.082-.554 2.073-1.28 5.457 2.008 4.745 4.088 9.22 6.336 13.286l.05-.589c.109-.998 1.013-1.711 2.006-1.61a1.82 1.82 0 0 1 1.611 2.004c-.005.05-.227 2.297.018 6.219l.372.554c1.514 2.166 3.172 4.83 4.928 7.651 7.561 12.144 17.915 28.775 33.164 32.119 4.58 1.005 8.995 1.498 13.172 1.498 11.018 0 20.367-3.438 26.626-10.008 4.009-4.21 7.59-9.275 11.735-15.14 3.216-4.549 6.861-9.705 11.187-15.077 3.618-4.493 6.626-8.448 9.236-12.665a47.22 47.22 0 0 0-1.513-.861c-.882-.477-1.209-1.581-.729-2.464zm-140.464-90.976l-.056-.145.003.072.053.073zm-7.609-37.327l.157.014c-.052-.008-.104-.01-.157-.014zm.677.177l.151.081a1.83 1.83 0 0 0-.151-.081zm-.335-.122l.166.049c-.055-.02-.11-.035-.166-.049zm1.104.825l.082.15-.082-.15zm-.464-.517l.127.104c-.04-.037-.083-.071-.127-.104z"/><path d="M111.373 166.465a1.49 1.49 0 0 1 .107.131l-.107-.131zm-2.986.431c.027-.058.056-.114.089-.167-.034.054-.062.11-.089.167zm.187-.311l.112-.136-.112.136zm.945-.659c-.032.009-.061.026-.092.037l.155-.048c-.021.005-.042.005-.063.011zm-.706.399a1.58 1.58 0 0 1 .135-.11 1.44 1.44 0 0 0-.135.11zm.284-.209l.151-.082-.151.082zm.685-.237l.153-.017c-.051.002-.102.01-.153.017zm1.931 2.467c-.034.093-.977 2.748-.792 9.146 2.433 8.651 5.793 20.851 6.688 25.358.014.072.055.131.078.199.016.05.036.097.056.145a6.35 6.35 0 0 0 .843.905c.249.126.516.216.805.216.117 0 .237-.012.356-.035a1.82 1.82 0 0 0 1.43-2.139l-.235-1.109c-1.9-8.604-8.862-32.788-9.171-33.861-.01-.034-.027-.063-.039-.097a1.8 1.8 0 0 1-.019 1.272z"/><path d="M122.133 225.982a1.82 1.82 0 0 0 1.139-2.307c-.27-.796-1.046-1.301-1.836-1.231-.49-.325-1.29-1.307-2.192-2.735-1.122-1.778-2.401-4.249-3.441-7.026-1.876-5.014-4.067-22.623-4.752-32.542a67.25 67.25 0 0 1-.129-2.649c-.185-6.398.758-9.053.792-9.146.168-.424.16-.872.019-1.272-.021-.06-.044-.12-.071-.177-.024-.051-.052-.101-.082-.15a1.69 1.69 0 0 0-.099-.15 2.26 2.26 0 0 0-.107-.131c-.041-.046-.084-.089-.13-.131-.04-.037-.083-.071-.127-.104-.049-.038-.101-.073-.154-.106s-.1-.055-.151-.081c-.034-.016-.063-.038-.099-.052-.023-.009-.047-.012-.071-.021-.055-.02-.11-.035-.166-.049-.062-.016-.123-.031-.185-.041-.052-.008-.104-.01-.157-.014a1.87 1.87 0 0 0-.198-.004c-.052.002-.103.01-.153.017a1.95 1.95 0 0 0-.2.036 1.73 1.73 0 0 0-.155.048 1.63 1.63 0 0 0-.179.072 1.69 1.69 0 0 0-.151.082 1.82 1.82 0 0 0-.149.098 1.58 1.58 0 0 0-.135.11c-.044.04-.086.081-.126.125a1.65 1.65 0 0 0-.112.136 1.83 1.83 0 0 0-.099.144 1.78 1.78 0 0 0-.089.167c-.015.031-.034.057-.047.089-.161.395-1.559 4.123-.917 13.406.615 8.921 2.804 27.767 4.974 33.567.179.479 3.858 10.182 7.807 11.893.383.166.768.261 1.153.261a2.48 2.48 0 0 0 .775-.132z"/></g><path d="M158.523 74.55a1.57 1.57 0 0 0-2.167.473 1.57 1.57 0 0 0 .473 2.167c19.904 12.771 37.541 38.969 37.717 39.232.302.452.799.697 1.305.697a1.56 1.56 0 0 0 .87-.264 1.57 1.57 0 0 0 .433-2.175c-.732-1.097-18.168-27-38.631-40.13zm49.799 34.644c.276 0 .558-.074.812-.228.74-.45.977-1.414.526-2.154-.331-.546-8.199-13.458-14.633-19.892a1.57 1.57 0 0 0-2.218 0 1.57 1.57 0 0 0 0 2.218c6.167 6.167 14.091 19.171 14.171 19.302a1.57 1.57 0 0 0 1.342.754zM168.759 62.37c-.74-.45-1.705-.212-2.153.528a1.57 1.57 0 0 0 .528 2.153c7.494 4.542 17.948 16.341 18.053 16.46.31.351.742.53 1.176.53a1.56 1.56 0 0 0 1.037-.392 1.57 1.57 0 0 0 .138-2.213c-.44-.499-10.874-12.275-18.779-17.066zm3.383 46.901a1.56 1.56 0 0 0 2.216.045 1.57 1.57 0 0 0 .046-2.217c-.65-.678-16.048-16.651-27.361-21.91a1.57 1.57 0 0 0-2.083.761 1.57 1.57 0 0 0 .761 2.083c10.779 5.011 26.265 21.076 26.421 21.238zm-28.203-14.348l-2.429-1.079a1.57 1.57 0 0 0-2.074.786 1.57 1.57 0 0 0 .786 2.074l2.454 1.09c3.623 1.594 4.596 2.023 9.3 5.442.278.203.601.3.92.3.485 0 .963-.224 1.27-.646a1.57 1.57 0 0 0-.346-2.19c-4.976-3.618-6.113-4.119-9.881-5.777zm51.183-30.329a1.57 1.57 0 0 0 .209 2.208c17.242 14.252 28.947 37.055 29.063 37.284.276.544.827.858 1.398.858a1.57 1.57 0 0 0 1.397-2.278c-.486-.957-12.105-23.604-29.861-38.281-.667-.552-1.655-.458-2.206.209zm23.427 2.412a1.57 1.57 0 0 0-2.211.17 1.57 1.57 0 0 0 .17 2.211c12.844 11.01 25.253 33.798 25.377 34.027.283.524.823.822 1.38.822.252 0 .508-.061.745-.189a1.57 1.57 0 0 0 .633-2.125c-.517-.956-12.806-23.525-26.094-34.916zm40.868 40.826a1.6 1.6 0 0 0 .347-.039 1.57 1.57 0 0 0 1.184-1.875c-.654-2.893-5.034-14.207-12.632-23.154a1.57 1.57 0 0 0-2.21-.18 1.57 1.57 0 0 0-.181 2.21c7.287 8.58 11.438 19.492 11.964 21.815a1.57 1.57 0 0 0 1.528 1.223zm-18.894-30.183c.309.403.774.615 1.246.615a1.56 1.56 0 0 0 .952-.323 1.57 1.57 0 0 0 .292-2.198c-.17-.223-4.231-5.511-9.459-10.421a1.57 1.57 0 0 0-2.216.069c-.593.631-.563 1.624.069 2.216 5.033 4.729 9.076 9.99 9.116 10.042zm30.521 29.262c.112 0 .228-.012.342-.038.845-.188 1.378-1.025 1.189-1.871-.198-.893-5.038-22.008-20.675-35.021a1.57 1.57 0 0 0-2.208.202 1.57 1.57 0 0 0 .202 2.208c14.797 12.314 19.573 33.084 19.62 33.292a1.57 1.57 0 0 0 1.53 1.228zM204.3 57.749c20.675-6.397 33.481 5.416 34.028 5.934a1.56 1.56 0 0 0 1.081.432 1.57 1.57 0 0 0 1.082-2.702c-.585-.56-14.624-13.62-37.117-6.66a1.57 1.57 0 0 0-1.035 1.961 1.57 1.57 0 0 0 1.961 1.035zm-26.712-3.139c-.752-.154-18.636-3.581-37.298 10.865a1.57 1.57 0 0 0-.28 2.2c.309.399.772.608 1.241.608.335 0 .673-.107.959-.328 17.445-13.503 34.524-10.315 34.755-10.271a1.57 1.57 0 0 0 1.848-1.224 1.57 1.57 0 0 0-1.225-1.85zm19.478 1.42l-6.61 2.046a1.57 1.57 0 0 0-1.034 1.962c.208.673.828 1.104 1.498 1.104a1.56 1.56 0 0 0 .464-.07l6.61-2.046a1.57 1.57 0 0 0 1.034-1.962 1.57 1.57 0 0 0-1.962-1.034zm-69.082 23.54c-.85-.184-1.681.354-1.864 1.201-2.611 12.072 2.3 21.455 2.511 21.848.282.528.823.828 1.383.828.249 0 .501-.06.736-.185a1.57 1.57 0 0 0 .648-2.12c-.046-.086-4.571-8.803-2.212-19.709a1.57 1.57 0 0 0-1.202-1.863zm9.483-7.26c-.858-.121-1.649.482-1.767 1.34-1.133 8.252.899 15.742.986 16.057a1.57 1.57 0 0 0 1.51 1.15 1.59 1.59 0 0 0 .418-.057 1.57 1.57 0 0 0 1.095-1.928c-.02-.071-1.944-7.203-.902-14.795.118-.859-.482-1.65-1.34-1.767zm12.804-4.552a1.57 1.57 0 0 0-2.123.642c-2.567 4.792-1.782 11.361-1.748 11.639.099.793.774 1.373 1.553 1.373a1.62 1.62 0 0 0 .195-.012 1.57 1.57 0 0 0 1.364-1.748c-.007-.058-.69-5.868 1.4-9.771.41-.764.123-1.714-.641-2.123zm136.121 60.874c.264 0 .53-.066.775-.206a1.57 1.57 0 0 0 .586-2.139c-5.973-10.473-11.528-12.436-11.762-12.514-.816-.275-1.688.162-1.97.972a1.58 1.58 0 0 0 .953 1.995c.047.017 4.759 1.817 10.054 11.102a1.57 1.57 0 0 0 1.364.79zm-8.991 4.351a1.57 1.57 0 0 0 1.923 1.104 1.57 1.57 0 0 0 1.104-1.923c-1.685-6.229-7.124-10.832-7.354-11.025a1.57 1.57 0 0 0-2.209.197 1.57 1.57 0 0 0 .197 2.209c.049.042 4.91 4.152 6.339 9.438z" fill="#fff"/><g fill="#222"><path d="M287.795 183.548l.908.97 1.014-3.365c-.373.467-.744 1.048-1.104 1.739a1.29 1.29 0 0 1-.818.656zm-9.574 42.394a1.81 1.81 0 0 0 .693.138 1.82 1.82 0 0 0 1.683-1.125l.08-.213c1.073-2.744 2.158-8.397 3.228-14.742-.014-.394.012-.813.122-1.271.501-2.09-.961-6.563-1.566-8.109a1.3 1.3 0 0 1 .736-1.685c.664-.258 1.421.067 1.684.735.064.164.255.66.489 1.359.704-4.357 1.367-8.366 1.934-10.972.183-.84.372-1.637.565-2.415-.967-1.341-1.91-2.255-1.929-2.273a1.3 1.3 0 0 1-.042-1.837c.18-.188.406-.288.643-.344-.379-.391-.498-.984-.233-1.493 1.331-2.563 2.889-4.023 4.635-4.375l1.614-5.31c-.444-1.483-1.033-1.85-1.143-1.904a1.82 1.82 0 0 1-1.565-1.877c.042-1.004.896-1.779 1.893-1.742-.837-.047-1.625.516-1.839 1.376-.914 3.653-1.896 6.707-2.845 9.66-1.193 3.715-2.32 7.224-3.308 11.762-.659 3.033-1.427 7.794-2.24 12.835-1.375 8.532-2.935 18.202-4.274 21.447-.035.088-.054.169-.074.249-.01.039-.025.076-.032.115-.156.827.282 1.677 1.091 2.011z"/><path d="M289.848 168.228a1.82 1.82 0 0 0 1.565 1.877c.109.055.698.421 1.143 1.904.221.734.406 1.737.48 3.12l.077 2.319c1.721.572 2.816 2.056 2.875 2.137a1.3 1.3 0 0 1-2.1 1.532 4.72 4.72 0 0 0-.771-.747l-.025 1.556c-.063 3.399-.121 6.61.558 10.534 1.015 5.858.092 16.146-3.616 23.676-.886 1.799-1.717 3.856-2.596 6.035-2.838 7.03-5.355 12.533-8.684 12.986a3.51 3.51 0 0 1-1.589-.151c-.962-.307-1.982.211-2.295 1.164a1.82 1.82 0 0 0 1.164 2.295 7.91 7.91 0 0 0 2.005.373c.141.009.286.036.423.036 6.156-.001 9.557-8.424 12.349-15.342.854-2.114 1.66-4.111 2.486-5.789 4.092-8.308 5.077-19.32 3.937-25.904-.619-3.583-.566-6.485-.505-9.847.04-2.175.081-4.423-.06-7.058-.427-7.957-4.39-8.421-4.91-8.448-1.016-.037-1.869.738-1.911 1.742zM150.01 302.346a1.82 1.82 0 0 0-1.611-2.004 1.83 1.83 0 0 0-2.006 1.61l-.05.589c-.181 2.61-.524 13.564 4.772 29.027a1.82 1.82 0 0 0 1.721 1.229c.195 0 .394-.031.589-.099a1.82 1.82 0 0 0 1.131-2.311c-3.17-9.254-4.222-16.874-4.53-21.824-.243-3.92-.021-6.167-.016-6.217zm50.65 87.71c-1.381-2.109-2.349-4.5-2.978-6.055l-.757-1.727c-.785-1.413-3.521-3.044-11.32-7.553l-6.848-3.991c-7.35-4.346-8.053-5.964-9.456-9.189l-.977-2.157c-.055-.115-.123-.224-.201-.325-5.287-6.797-11.414-21.994-11.475-22.146a1.82 1.82 0 0 0-2.366-1.012 1.82 1.82 0 0 0-1.011 2.365c.25.623 6.001 14.887 11.453 22.325.686-.251 1.415-.479 2.196-.681a1.82 1.82 0 0 1 2.214 1.31 1.82 1.82 0 0 1-1.31 2.214c-.519.133-1.002.282-1.466.441 1.537 3.375 3.181 5.632 10.546 9.986l6.878 4.01c4.586 2.651 9.329 5.394 9.96 6.17.109.195.341.77.565 1.324.497 1.227 1.179 2.911 2.109 4.654l3.581.045.663-.008zm69.585-113.168a1.82 1.82 0 0 1 2.434.832l.125.255-1.992-6.221-.228-.581c-.381-.929-1.444-1.375-2.372-.992a1.82 1.82 0 0 0-.994 2.372c.028.068.847 2.117 1.803 5.528 1.536 5.477 3.428 14.481 2.994 24.559 3.12 4.254 2.919 7.426 2.9 7.641a1.82 1.82 0 0 1-1.811 1.663c-.052 0-.104-.003-.158-.007a1.82 1.82 0 0 1-1.658-1.936c0-.013 0-.06-.004-.13-.499 3.115-1.252 6.273-2.35 9.41a1.82 1.82 0 0 0 1.116 2.317c.198.069.401.103.601.103a1.82 1.82 0 0 0 1.717-1.219c3.559-10.166 3.851-20.382 2.979-28.864l-5.935-12.297a1.82 1.82 0 0 1 .833-2.433zm-37.498 94.442c1.339.304 2.509.719 3.546 1.217 18.772-15.137 31.904-42.679 32.463-43.862a1.82 1.82 0 0 0-.87-2.421 1.82 1.82 0 0 0-2.421.87c-.135.285-13.681 28.724-32.201 43.186-.643.385-1.264.803-1.874 1.236.391-.243.873-.338 1.357-.226zm-2.176 1.371c.107-.474.392-.859.767-1.109-2.281 1.629-4.36 3.549-6.384 5.423-2.82 2.613-5.483 5.082-8.088 6.101-4.699 1.838-12.773 5.174-14.2 6.915a192.44 192.44 0 0 0 7.699-.25c2.1-.952 4.766-2.08 7.826-3.276 3.247-1.271 6.155-3.967 9.235-6.82 1.707-1.582 3.456-3.195 5.289-4.587-.258-.073-.498-.157-.773-.22a1.82 1.82 0 0 1-1.371-2.177z"/><path d="M279.581 299.629a1.82 1.82 0 0 1 2.271-1.21l.79.241c-3.254-7.218-8.905-18.781-9.838-20.686l-.125-.255a1.82 1.82 0 0 0-2.434-.832 1.82 1.82 0 0 0-.832 2.434l5.935 12.297c2.311 4.859 4.644 9.882 5.655 12.411.434 1.086 10.475 26.929-3.731 56.862a1.82 1.82 0 0 0 .863 2.424c.252.119.518.176.779.176a1.82 1.82 0 0 0 1.645-1.039c14.15-29.817 5.577-55.19 3.962-59.415l-3.729-1.138a1.82 1.82 0 0 1-1.211-2.27zm-43.288 72.918c-1.037-.498-2.207-.913-3.546-1.217-.484-.112-.966-.017-1.357.226l-.052.036c-.375.25-.659.636-.767 1.109a1.82 1.82 0 0 0 1.371 2.176c.275.063.516.146.773.22 5.396 1.539 6.992 5.463 7.093 10.778l3.635-.805c-.234-5.058-1.827-9.964-7.15-12.523zm39.226-2.688a1.82 1.82 0 0 0-.73-2.467 1.82 1.82 0 0 0-2.467.73l-5.346 9.79a190.2 190.2 0 0 0 5.288-2.083l3.255-5.97zm-135.508-88.295c-.973-.269-1.969.307-2.234 1.275l-.155.599-.995 4.243 1.13-.247a1.82 1.82 0 0 1 2.165 1.39 1.82 1.82 0 0 1-1.39 2.165l-2.713.592c-2.482 12.624-5.988 36.979-2.012 60.012a1.82 1.82 0 0 0 1.791 1.51 1.95 1.95 0 0 0 .312-.026 1.82 1.82 0 0 0 1.483-2.103c-4.233-24.521.242-50.655 2.615-61.719.726-3.384 1.257-5.375 1.28-5.457a1.82 1.82 0 0 0-1.277-2.234z"/><path d="M138.466 358.778a1.82 1.82 0 0 0-2.09-1.499 1.82 1.82 0 0 0-1.5 2.091c.115.698 1.693 10.184 4.18 20.713l4.074 1.323c-2.806-11.458-4.634-22.445-4.664-22.628zm30.669 2.442a1.82 1.82 0 0 0-2.214-1.31l-2.196.681c-10.851 3.976-10.067 14.009-9.484 21.455l.19 2.75 3.683.845c-.049-1.271-.145-2.59-.246-3.879-.601-7.669-1.164-14.931 7.491-17.887.464-.159.948-.309 1.466-.441a1.82 1.82 0 0 0 1.31-2.214zm102.153-51.219a1.82 1.82 0 0 0 1.658 1.936l.158.007a1.82 1.82 0 0 0 1.811-1.663c.019-.215.22-3.387-2.9-7.641-1.842-2.511-4.844-5.398-9.728-8.281-.519-.307-1.051-.612-1.613-.918-.886-.482-1.988-.153-2.467.729a1.82 1.82 0 0 0 .729 2.467c.529.288 1.027.574 1.513.861 10.067 5.943 10.789 11.461 10.836 12.374.003.069.003.116.003.129zm77.13 8.719l-65.776-20.06-.79-.241a1.82 1.82 0 0 0-2.271 1.21 1.82 1.82 0 0 0 1.21 2.271l3.729 1.138 61.41 18.728 2.488-3.046zm-171.946 59.596c1.213-1.46-.83-3.564-3.04-4.768s-5.112-2.05-5.784-.316c-.396 1.021-.236 3.221 3.635 5.138s5.056.107 5.189-.054zm111.26-194.829l.063.061a1.29 1.29 0 0 0 .818-.656c.359-.691.73-1.272 1.104-1.739.651-.814 1.31-1.275 1.924-1.325.552-.043 1.072.235 1.477.543a4.67 4.67 0 0 1 .771.747 1.3 1.3 0 0 0 2.1-1.532c-.059-.081-1.154-1.564-2.875-2.137a4.18 4.18 0 0 0-1.657-.213c-.174.013-.345.05-.515.084-1.746.353-3.304 1.813-4.635 4.375-.265.509-.146 1.103.233 1.493.413-.098.861-.016 1.192.299z"/><path d="M285.928 212.961a2.84 2.84 0 0 0 .901.145c1.293 0 2.752-.855 3.667-2.967 1.589-3.666 1.975-6.484 1.99-6.603a1.3 1.3 0 0 0-1.116-1.458c-.693-.091-1.362.404-1.46 1.114-.003.026-.363 2.602-1.799 5.913-.521 1.202-1.149 1.46-1.36 1.39-.178-.059-.363-.469-.197-1.16.582-2.429-.495-6.251-1.185-8.306l-.489-1.359c-.263-.668-1.02-.993-1.684-.735a1.3 1.3 0 0 0-.736 1.685c.605 1.547 2.067 6.02 1.566 8.109-.11.459-.136.878-.122 1.271.057 1.57.984 2.613 2.024 2.961zm5.268-19.628a1.36 1.36 0 0 0 .156-.009 1.3 1.3 0 0 0 1.136-1.445c-.365-3.049-2.502-5.894-3.785-7.36l-.908-.97-.063-.061c-.331-.315-.779-.397-1.192-.299a1.26 1.26 0 0 0-.643.344 1.3 1.3 0 0 0 .042 1.837c.019.018.962.932 1.929 2.273.912 1.264 1.844 2.907 2.04 4.545a1.3 1.3 0 0 0 1.288 1.145zm-173.453 9.86l-.053-.072c-.566-.749-1.156-1.814-1.624-3.327a1.3 1.3 0 0 0-1.625-.858 1.3 1.3 0 0 0-.858 1.625c1.201 3.88 3.17 5.567 4.341 6.262.476.282.824.404.928.437.126.039.253.058.377.058.544 0 1.044-.352 1.225-.897.221-.672-.148-1.402-.816-1.637-.04-.015-.472-.176-1.052-.685a6.42 6.42 0 0 1-.843-.906zm102.695 4.753l-7.567 6.857a1.3 1.3 0 0 0-.076 1.836c.256.278.605.42.956.42a1.29 1.29 0 0 0 .88-.344c.003-.003 2.949-2.712 7.544-6.836 1.485-1.333 3.236-2.579 5.236-3.477.467-1.098.967-1.774.967-1.774.508-.184 4.379-1.382 9.823-.316 1.113.557 1.879 1.327 2.391 2.201 2.248.967 4.632 2.447 7.146 4.572a1.3 1.3 0 0 0 1.831-.153 1.3 1.3 0 0 0-.153-1.831c-1.979-1.674-3.891-2.971-5.729-3.966-4.433-1.686-9.049-2.356-12.827-2.471-4.515.764-8.068 3.17-10.422 5.282z"/><path d="M250.699 208.694a1.04 1.04 0 0 0 .605-1.887c-10.104-7.201-23.396-6.56-27.255-5.77-4.918 1.009-8.257 5.154-8.397 5.33a1.04 1.04 0 0 0 1.628 1.294c.029-.037 3.023-3.733 7.188-4.587 1.461-.3 3.717-.49 6.392-.41 3.778.114 8.395.785 12.827 2.471 2.229.848 4.411 1.94 6.411 3.365.182.131.392.194.601.194zm-96.365-3.599c1.539.038 7.198-.078 10.065 2.018.474.689.796 1.424.996 2.172.684.482 1.303.975 1.878 1.432.482.384.925.734 1.338 1.027 3.573 2.536 7.199 5.572 7.236 5.603a1.29 1.29 0 0 0 .834.305c.371 0 .739-.158.996-.465a1.3 1.3 0 0 0-.161-1.83c-.037-.031-3.741-3.134-7.402-5.731-.378-.269-.783-.591-1.224-.942-1.64-1.304-3.891-3.09-7.144-4.078-1.635-.254-3.429-.426-5.38-.445-1.749-.009-3.354.116-4.832.319-2.607.593-5.553 1.656-8.89 3.356a1.3 1.3 0 0 0-.568 1.748 1.3 1.3 0 0 0 1.748.568c3.269-1.666 6.083-2.678 8.532-3.22.924-1.307 1.978-1.837 1.978-1.837z"/><path d="M161.748 204.604c6.214.961 9.986 3.156 10.033 3.185a1.04 1.04 0 0 0 1.425-.36 1.04 1.04 0 0 0-.357-1.424c-.26-.156-6.494-3.825-16.459-3.924-11.031-.139-17.051 4.561-17.302 4.76a1.04 1.04 0 0 0-.17 1.457c.205.26.509.396.817.396.225 0 .452-.072.642-.222.047-.036 3.985-3.007 11.16-3.993 1.479-.203 3.083-.328 4.832-.319 1.95.018 3.744.19 5.379.444zm42.808 70.023c1.361-.907 3.193-1.315 4.059-1.315a1.3 1.3 0 1 0 0-2.6c-1.383 0-3.694.549-5.5 1.753-.381.254-.741.554-1.123.872-1.347 1.123-3.022 2.521-6.774 2.689-4.16.185-5.808-1.143-7.715-2.681l-.815-.649c-2.296-1.779-4.546-1.71-5.517-1.386-.669.223-1.023.936-.816 1.61a1.31 1.31 0 0 0 1.611.863c.057-.017 1.399-.375 3.129.967l.776.617c1.998 1.611 4.059 3.274 8.576 3.274l.888-.021c4.626-.208 6.849-2.062 8.321-3.289l.9-.704zm7.419-4.361a1.3 1.3 0 0 0 .122 2.594c.04 0 .08-.002.12-.006 1.984-.181 5.959-1.694 6.796-6.138 1.063-5.847-1.91-8.567-2.037-8.681a1.3 1.3 0 0 0-1.727 1.943c.021.018 1.998 1.917 1.208 6.265-.676 3.586-4.313 4.006-4.482 4.023zM175.334 258.5a1.3 1.3 0 0 0-1.794.398c-.101.159-2.459 3.935-1.683 8.85.682 4.317 4.105 5.843 5.82 6.046.052.007.104.01.155.01a1.3 1.3 0 0 0 1.289-1.146 1.3 1.3 0 0 0-1.137-1.443c-.03-.004-3.011-.397-3.56-3.871-.619-3.915 1.291-7.021 1.308-7.048a1.3 1.3 0 0 0-.398-1.796zm-7.941 31.728a1.3 1.3 0 0 1 1.759-.532l5.293 2.905 1.098.154c4.559.646 10.685 1.514 16.627 1.514 2.885 0 5.728-.205 8.326-.739 2.902-.597 6.703-1.67 10.728-2.807l8.142-2.229c1.905-1.562 4.117-3.242 5.487-3.852a1.3 1.3 0 0 1 1.715.659 1.3 1.3 0 0 1-.659 1.716c-.03.014-.074.041-.106.057 1.789-.297 3.276-.415 4.279-.262.693.11 1.372-.377 1.481-1.087a1.3 1.3 0 0 0-1.087-1.481c-3.803-.586-12.018 1.733-19.958 3.977-3.979 1.124-7.735 2.186-10.545 2.764-7.505 1.542-17.47.131-24.064-.803l-1.525-.215c-6.739-.937-8.702-.09-9.143.192a1.3 1.3 0 0 0 1.317 2.238c.074-.028.536-.188 1.682-.242l-.314-.169a1.3 1.3 0 0 1-.533-1.758z"/><path d="M225.802 287.074l.106-.057a1.3 1.3 0 0 0 .659-1.716 1.3 1.3 0 0 0-1.715-.659c-1.37.609-3.582 2.29-5.487 3.852l-3.471 2.972c-5.632 5.039-12.273 7.788-19.74 8.171-9.409.488-14.741-2.823-18.636-5.237l-1.912-1.15-1.161-.648-5.293-2.905a1.3 1.3 0 0 0-1.759.532 1.3 1.3 0 0 0 .532 1.759c.005.003.116.063.314.169l6.096 3.361c.56.313 1.16.687 1.814 1.092 3.694 2.29 9.154 5.674 18.205 5.674a37.7 37.7 0 0 0 1.933-.05c8.075-.415 15.255-3.385 21.34-8.829 2.931-2.625 6.551-5.558 8.175-6.331zm-24.125-1.815l-6.578 1.606c-.584 0-3.828-.451-5.944-.772a1.3 1.3 0 0 0-1.479 1.091 1.3 1.3 0 0 0 1.09 1.479l6.334.802c1.011 0 5.422-1.189 7.271-1.7a1.3 1.3 0 0 0 .906-1.6c-.192-.691-.909-1.092-1.6-.906zm3.261 24.079c-8.622 4.02-17.107.883-17.244.831a1.3 1.3 0 0 0-1.679.745 1.3 1.3 0 0 0 .745 1.68c.236.092 3.741 1.409 8.631 1.409 3.143 0 6.859-.545 10.645-2.31a1.3 1.3 0 0 0 .629-1.727 1.3 1.3 0 0 0-1.727-.628zm33.263-105.025c-5.444-1.065-9.315.133-9.823.316 0 0-.5.677-.967 1.774-.698 1.642-1.323 4.236-.085 6.996 2.066 4.604 8.086 4.25 11.098 2.36 2.358-1.479 4.022-6.083 2.168-9.246-.512-.873-1.278-1.644-2.391-2.2zm-87.175 7.906c.355 5.313 5.588 7.791 9.838 5.981 3.506-1.494 5.47-5.386 4.532-8.916a6.97 6.97 0 0 0-.996-2.172c-2.867-2.096-8.526-1.979-10.065-2.018 0 0-1.054.53-1.977 1.836-.797 1.127-1.496 2.829-1.332 5.289zm-8.657-14.718c4.88.157 18.338 1.338 22.273 2.282l9.05 2.204-2.439-2.282 4.485 2.282-.944-2.676 2.518 3.07.52-.395s.897-3.384-2.251-9.051l.314 2.912s-2.99-4.958-6.61-7.24l1.732 2.912s-3.204-2.676-5.38-3.542l1.601 2.125s-2.911-1.416-6.531-2.125-16.843.079-21.564.551l1.888-1.338-4.328 1.417 2.519-2.283s-4.88 2.125-8.343 5.037-5.509 10.242-5.509 10.242 2.833-.719 5.194-1.427 5.588-.944 5.588-.944l-3.621-.551c0 .002 4.959-1.337 9.838-1.18zm118.13-3.855c-3.424-3.935-11.924-7.32-11.924-7.32l2.833 2.755-7.318-2.44 3.66 2.322c-5.55-1.653-18.416-1.889-22.549-1.416s-7.044 2.164-7.044 2.164l.708-2.598-3.934 2.598 1.18-3.07c-1.889 1.181-4.643 3.778-4.643 3.778l1.022-2.912c-2.597 1.653-4.014 4.644-4.014 4.644l.472-3.542c-2.438 2.912-2.518 6.139-2.518 6.139l-1.259-3.227c-.866 2.361-.315 5.43-.315 5.43l-1.967-2.597s.078.472.471 1.889 2.52 4.722 2.52 4.722l.864.64 3.621-3.395-1.496 2.597 4.881-2.833-1.417 2.171 5.902-2.249-2.125 1.495c3.148-.472 15.111-2.676 24.477-2.204s15.661 2.125 15.661 2.125l-4.643.236c5.98.787 14.401 4.171 14.401 4.171s-2.083-6.138-5.507-10.073zm-120.577 95.178a1.82 1.82 0 0 0-2.165-1.39l-1.13.247-93.044 20.297 2.28 3.227 89.957-19.624 2.713-.592a1.82 1.82 0 0 0 1.389-2.165z"/></g><path fill="#fc0" d="M109.33 233.615c-19.176-18.397-13.216-71.001-13.216-71.001-7.255-38.869 9.846-59.6 9.846-59.6-4.145-27.726 22.286-41.2 22.286-41.2 3.369-12.439 23.581-26.172 30.577-25.913 12.438.259 23.58-2.85 46.902-2.85s42.669 15.806 42.669 15.806c37.142 7.428 43.882 48.37 43.882 48.37 17.97 15.721 12.953 59.081 12.953 59.081s7.429 24.185 1.899 51.135-17.273 38.005-17.273 38.005l-3.801 20.903 8.291 17.62 63.029 19.196c19.503-29.649 30.87-65.104 30.87-103.168 0-103.798-84.446-188.244-188.245-188.244S11.755 96.202 11.755 200c0 33.267 8.686 64.538 23.891 91.687l83.79-18.425c-6.738-14.252-10.106-39.647-10.106-39.647z"/><path fill="#222" d="M200 8.118C94.195 8.118 8.117 94.196 8.117 200S94.195 391.883 200 391.883 391.884 305.805 391.884 200 305.805 8.118 200 8.118zm0 380.126c-70.532 0-132.117-38.998-164.354-96.558C20.44 264.538 11.755 233.267 11.755 200 11.755 96.202 96.201 11.756 200 11.756S388.245 96.202 388.245 200c0 38.064-11.367 73.519-30.87 103.168-33.679 51.201-91.641 85.076-157.375 85.076z"/></svg>